<svg width="464" height="396" viewBox="0 0 464 396" fill="none" xmlns="http://www.w3.org/2000/svg">
<path d="M363.467 158.602C399.883 152.806 426.396 173.821 430.047 239.648C432.762 288.637 407.207 337.009 366.387 359.598C312.151 389.625 231.264 380.293 204.636 331.487C188.733 302.372 190.923 256.921 213.033 238.69C235.189 220.39 259.922 251.604 300.332 234.24C345.236 214.914 334.101 163.279 363.467 158.602Z" fill="white"/>
<path d="M297.252 377.305C284.018 377.305 270.898 375.548 258.554 371.966C233.364 364.642 214.563 350.723 204.204 331.739C196.4 317.456 192.727 298.951 194.096 280.971C195.51 262.443 202.31 246.905 212.737 238.28C223.644 229.29 235.189 232.051 248.56 235.268C263.026 238.736 279.409 242.661 300.15 233.762C324.108 223.449 331.865 204.191 338.711 187.17C344.529 172.749 349.549 160.291 363.399 158.078C379.896 155.454 393.654 158.466 404.241 166.999C419.734 179.503 428.587 203.918 430.572 239.581C433.311 288.934 407.618 337.329 366.662 360.01C346.126 371.395 321.529 377.305 297.252 377.305ZM229.918 233.238C224.1 233.238 218.624 234.721 213.353 239.079C203.131 247.521 196.491 262.809 195.077 281.062C193.708 298.837 197.358 317.136 205.071 331.26C215.315 350.016 233.889 363.774 258.828 371.007C293.578 381.115 334.695 376.575 366.137 359.165C406.774 336.668 432.261 288.66 429.546 239.672C427.583 204.305 418.867 180.142 403.603 167.821C393.244 159.447 379.759 156.526 363.558 159.105L363.49 158.603L363.558 159.105C350.256 161.227 345.35 173.434 339.646 187.558C332.71 204.739 324.861 224.225 300.538 234.698C279.5 243.756 262.935 239.786 248.309 236.272C241.761 234.698 235.668 233.238 229.918 233.238Z" fill="black"/>
<path d="M362.714 298.494C362.508 298.494 362.326 298.38 362.235 298.175C356.964 284.986 339.281 282.408 339.098 282.385C338.824 282.34 338.619 282.089 338.665 281.815C338.71 281.541 338.961 281.336 339.235 281.381C339.418 281.404 357.694 284.051 363.17 297.81C363.284 298.061 363.147 298.357 362.896 298.471C362.828 298.494 362.759 298.494 362.714 298.494Z" fill="black"/>
<path d="M337.82 306.936C337.797 306.936 337.774 306.936 337.774 306.936C337.501 306.913 337.295 306.662 337.318 306.388C338.641 293.565 331.386 285.146 331.317 285.077C331.135 284.872 331.157 284.552 331.363 284.37C331.568 284.187 331.888 284.21 332.07 284.415C332.139 284.507 339.668 293.246 338.322 306.503C338.299 306.753 338.094 306.936 337.82 306.936Z" fill="black"/>
<path d="M263.506 355.359C262.366 354.195 255.749 333.637 255.749 333.637L242.697 342.946L257.004 362.181L263.506 355.359Z" fill="white"/>
<path d="M257.004 362.704H256.981C256.821 362.704 256.684 362.613 256.616 362.498L242.309 343.264C242.218 343.15 242.195 343.013 242.218 342.876C242.241 342.739 242.309 342.625 242.424 342.533L255.475 333.224C255.612 333.133 255.772 333.11 255.931 333.156C256.091 333.201 256.205 333.338 256.251 333.475C258.783 341.324 263.073 354.125 263.894 354.992C264.077 355.197 264.077 355.494 263.894 355.699L257.392 362.544C257.278 362.658 257.163 362.704 257.004 362.704ZM243.405 343.081L257.049 361.426L262.868 355.311C261.362 352.55 256.867 338.746 255.475 334.479L243.405 343.081Z" fill="black"/>
<path d="M239.983 381.347L248.676 381.301C254.426 381.279 259.765 378.358 262.891 373.521L271.47 359.922C273.843 356.157 272.52 351.183 268.595 349.106C265.013 347.213 261.248 345.342 260.381 345.433C258.601 345.593 257.871 354.058 257.871 354.058L250.136 354.354C250.136 354.354 246.303 370.258 242.949 372.061C240.507 373.384 238.796 375.301 237.632 377.08C236.423 378.928 237.769 381.37 239.983 381.347Z" fill="black"/>
<path d="M240.85 378.467C240.599 378.467 240.394 378.285 240.348 378.034C240.303 377.76 240.508 377.509 240.782 377.463L252.669 375.683C255.202 375.296 257.393 373.835 258.716 371.645L269.212 354.098C269.349 353.87 269.668 353.779 269.896 353.916C270.125 354.053 270.216 354.372 270.079 354.6L259.583 372.147C258.123 374.588 255.658 376.254 252.829 376.665L240.941 378.444C240.896 378.467 240.873 378.467 240.85 378.467Z" fill="white"/>
<path d="M255.521 365.283C255.476 365.283 255.43 365.283 255.385 365.26L248.768 363.458C248.494 363.389 248.334 363.116 248.403 362.842C248.471 362.568 248.745 362.408 249.019 362.477L255.636 364.279C255.909 364.348 256.069 364.622 256.001 364.895C255.932 365.124 255.727 365.283 255.521 365.283Z" fill="white"/>
<path d="M252.076 368.685C252.03 368.685 251.985 368.685 251.962 368.662L247.535 367.567C247.261 367.499 247.102 367.225 247.17 366.951C247.239 366.677 247.512 366.518 247.786 366.586L252.213 367.681C252.487 367.75 252.646 368.024 252.578 368.297C252.509 368.526 252.304 368.685 252.076 368.685Z" fill="white"/>
<path d="M218.944 351.425L203.794 366.667L195.739 363.701L209.726 344.215L218.944 351.425Z" fill="white"/>
<path d="M203.794 367.17C203.725 367.17 203.68 367.17 203.611 367.147L195.58 364.204C195.443 364.158 195.306 364.021 195.26 363.885C195.214 363.725 195.237 363.565 195.329 363.451L209.315 343.965C209.407 343.851 209.521 343.783 209.658 343.76C209.795 343.737 209.932 343.783 210.046 343.851L219.264 351.061C219.378 351.153 219.446 351.289 219.446 351.426C219.446 351.563 219.401 351.723 219.309 351.814L204.159 367.056C204.045 367.125 203.931 367.17 203.794 367.17ZM196.538 363.474L203.657 366.075L218.191 351.472L209.84 344.946L196.538 363.474Z" fill="black"/>
<path d="M208.586 364.275C208.586 364.275 209.316 370.755 208.084 376.482C207.422 379.54 204.661 381.685 201.558 381.685H164.32C161.651 381.685 160.464 378.376 162.495 376.665C169.112 371.12 181.274 362.655 196.242 360.168L200.417 366.009L208.586 364.275Z" fill="black"/>
<path d="M204.661 377.074H166.1C165.826 377.074 165.598 376.846 165.598 376.572C165.598 376.298 165.826 376.07 166.1 376.07H204.661C204.934 376.07 205.163 376.298 205.163 376.572C205.163 376.846 204.934 377.074 204.661 377.074Z" fill="white"/>
<path d="M187.618 370.227C187.412 370.227 187.23 370.113 187.161 369.908L185.131 364.956C185.016 364.705 185.153 364.409 185.404 364.295C185.655 364.18 185.952 364.317 186.066 364.568L188.097 369.52C188.211 369.771 188.074 370.067 187.823 370.181C187.732 370.204 187.663 370.227 187.618 370.227Z" fill="white"/>
<path d="M180.885 371.536C180.68 371.536 180.474 371.399 180.406 371.194L178.923 366.722C178.831 366.448 178.968 366.174 179.242 366.083C179.516 365.992 179.79 366.128 179.881 366.402L181.364 370.874C181.455 371.148 181.318 371.422 181.045 371.513C180.999 371.536 180.953 371.536 180.885 371.536Z" fill="white"/>
<path d="M299.215 244.824C299.215 244.824 229.919 236.746 209.315 254.589C188.711 272.432 241.852 349.121 241.852 349.121L258.646 336.663L242.697 282.449L306.744 264.264L299.215 244.824Z" fill="black"/>
<path d="M337.342 280.126C327.28 283.32 309.277 287.45 284.087 287.108C276.945 287.016 270.328 290.964 267.088 297.33C259.627 311.955 243.495 338.286 217.21 355.331L204.66 348.577L236.695 276.452C239.616 269.858 245.092 264.747 251.869 262.26L315.369 238.963C315.369 238.963 335.06 233.465 344.712 251.034C346.446 254.182 349.64 248.569 350.393 251.102C353.017 259.818 345.99 277.388 337.342 280.126Z" fill="black"/>
<path d="M222.207 309.559C222.138 309.559 222.07 309.537 222.001 309.514C221.75 309.4 221.636 309.103 221.75 308.852L236.239 276.246C239.205 269.584 244.841 264.313 251.686 261.803L282.102 250.646C282.376 250.554 282.649 250.691 282.741 250.942C282.832 251.193 282.695 251.49 282.444 251.581L252.029 262.739C245.435 265.157 240.004 270.223 237.152 276.657L222.663 309.263C222.595 309.445 222.412 309.559 222.207 309.559Z" fill="white"/>
<path d="M239.114 337.578C238.978 337.578 238.863 337.532 238.772 337.441C238.567 337.258 238.567 336.916 238.749 336.734C241.647 333.722 244.499 330.505 247.215 327.128C247.397 326.899 247.717 326.877 247.922 327.059C248.15 327.242 248.173 327.561 247.99 327.767C245.252 331.143 242.377 334.406 239.48 337.441C239.388 337.532 239.251 337.578 239.114 337.578Z" fill="white"/>
<path d="M247.602 327.95C247.488 327.95 247.374 327.904 247.283 327.836C247.055 327.653 247.032 327.334 247.214 327.128C248.561 325.463 249.884 323.751 251.185 322.017C251.344 321.789 251.664 321.743 251.892 321.903C252.12 322.063 252.166 322.382 252.006 322.61C250.705 324.345 249.382 326.079 248.013 327.744C247.899 327.881 247.762 327.95 247.602 327.95Z" fill="white"/>
<path d="M283.447 188.861C283.447 188.861 277.355 244.192 236.421 247.82L283.447 248.482C283.447 248.482 300.857 213.206 301.564 199.47C302.271 185.735 283.447 188.861 283.447 188.861Z" fill="white"/>
<path d="M283.447 249.007L236.421 248.345C236.147 248.345 235.942 248.117 235.919 247.866C235.919 247.592 236.101 247.364 236.375 247.341C257.276 245.493 268.821 229.703 274.822 216.789C281.348 202.733 282.922 188.952 282.945 188.815C282.968 188.587 283.15 188.404 283.356 188.381C283.789 188.313 293.829 186.716 299.054 191.371C301.222 193.31 302.248 196.048 302.066 199.516C301.359 213.207 284.611 247.295 283.903 248.733C283.835 248.893 283.652 249.007 283.447 249.007ZM242.376 247.409L283.15 247.98C284.793 244.58 300.423 212.271 301.085 199.448C301.244 196.299 300.355 193.835 298.415 192.123C294.08 188.267 285.774 189.066 283.926 189.317C283.607 191.667 281.759 204.331 275.758 217.2C268.023 233.833 256.568 244.169 242.376 247.409Z" fill="black"/>
<path d="M341.699 153.698C333.759 151.827 330.45 151.804 301.587 152.854C294.536 153.105 286.687 164.148 285.866 171.153C288.102 177.884 297.913 208.893 279.842 234.813C277.287 238.487 273.796 242.525 269.004 246.404C271.696 248.572 275.872 251.401 281.485 253.067C290.794 255.828 295.472 252.839 302.979 253.067C322.83 253.66 330.108 275.77 342.931 272.986C346.354 272.256 350.895 269.564 355.139 260.619C357.557 253.181 359.702 244.465 360.889 234.608C364.129 207.889 358.835 185.642 354.089 171.678C352.697 167.297 351.054 155.888 341.699 153.698Z" fill="white"/>
<path d="M340.696 273.738C335.425 273.738 331.044 269.836 326.093 265.387C320.047 259.979 313.179 253.864 302.979 253.568C300.31 253.499 297.982 253.819 295.701 254.161C291.616 254.754 287.418 255.347 281.349 253.545C276.854 252.199 272.61 249.94 268.708 246.791C268.594 246.7 268.525 246.54 268.525 246.403C268.525 246.243 268.594 246.106 268.708 246.015C272.861 242.638 276.489 238.782 279.432 234.538C295.929 210.854 289.084 182.447 285.387 171.335C285.364 171.266 285.364 171.198 285.364 171.106C286.186 164.239 294.103 152.625 301.587 152.351C330.93 151.278 333.942 151.347 341.837 153.218C350.188 155.18 352.561 164.079 353.998 169.395C354.227 170.239 354.409 170.97 354.614 171.563C361.688 192.418 363.97 213.66 361.437 234.698C360.364 243.505 358.425 252.29 355.664 260.801C355.664 260.824 355.641 260.846 355.641 260.869C352.15 268.216 347.929 272.46 343.069 273.51C342.225 273.67 341.449 273.738 340.696 273.738ZM302.181 252.564C302.454 252.564 302.728 252.564 303.002 252.587C313.566 252.906 320.571 259.158 326.755 264.657C332.231 269.562 336.977 273.784 342.841 272.506C347.359 271.525 351.352 267.463 354.683 260.436C357.421 251.993 359.338 243.3 360.41 234.561C362.943 213.683 360.661 192.577 353.633 171.859C353.428 171.221 353.223 170.49 352.994 169.623C351.625 164.535 349.344 156.002 341.586 154.176C333.805 152.351 330.816 152.282 301.61 153.355C294.628 153.606 287.213 164.535 286.368 171.106C290.133 182.447 296.956 211.128 280.253 235.109C277.356 239.261 273.842 243.072 269.803 246.403C273.454 249.278 277.424 251.354 281.622 252.587C287.464 254.321 291.388 253.75 295.541 253.157C297.617 252.86 299.762 252.564 302.181 252.564Z" fill="black"/>
<path d="M278.086 195.068C278.086 195.068 285.867 156.53 299.329 153.336L293.122 203.671L278.086 195.068Z" fill="white"/>
<path d="M293.099 204.193C293.008 204.193 292.917 204.17 292.848 204.124L277.812 195.522C277.629 195.408 277.515 195.203 277.561 194.975C277.88 193.378 285.57 156.072 299.191 152.854C299.465 152.786 299.739 152.968 299.808 153.219C299.876 153.493 299.693 153.767 299.442 153.835C287.144 156.756 279.477 190.936 278.656 194.815L292.711 202.87L293.738 194.587C293.784 194.313 294.035 194.108 294.309 194.153C294.582 194.176 294.788 194.45 294.742 194.724L293.624 203.759C293.601 203.919 293.51 204.079 293.35 204.147C293.259 204.17 293.191 204.193 293.099 204.193Z" fill="black"/>
<path d="M318.038 135.26L317.079 148.585C316.874 150.319 315.619 151.757 313.93 152.19L309.253 153.4L312.288 155.704C319.019 160.838 328.351 161.888 335.082 156.777L339.896 153.286L334.078 151.825C332.412 151.46 331.112 149.064 330.815 147.376L328.237 129.738L318.038 135.26Z" fill="white"/>
<path d="M324.837 160.658C320.456 160.658 315.916 159.129 311.968 156.117L308.934 153.813C308.774 153.698 308.706 153.493 308.751 153.311C308.797 153.128 308.934 152.968 309.116 152.923L313.794 151.713C315.3 151.325 316.372 150.071 316.577 148.542L317.536 135.239C317.559 135.057 317.65 134.92 317.81 134.829L328.032 129.33C328.169 129.261 328.351 129.238 328.488 129.33C328.625 129.398 328.739 129.535 328.762 129.718L331.34 147.355C331.614 148.816 332.755 151.052 334.215 151.371L340.033 152.831C340.216 152.877 340.376 153.037 340.399 153.219C340.444 153.402 340.353 153.607 340.193 153.721L335.379 157.212C332.321 159.517 328.648 160.658 324.837 160.658ZM310.371 153.63L312.584 155.318C319.635 160.68 328.556 161.114 334.786 156.391L338.733 153.539L333.964 152.352C331.979 151.919 330.633 149.249 330.336 147.515L327.872 130.585L318.54 135.604L317.604 148.656C317.353 150.641 315.984 152.215 314.068 152.717L310.371 153.63Z" fill="black"/>
<path d="M302.887 116.715C306.081 115.026 303.503 120.297 314.044 111.17C318.242 107.542 318.402 114.319 319.475 113.384C323.513 109.915 323.353 110.03 325.909 109.596C327.597 109.299 329.834 111.627 330.518 113.817C331.408 116.715 329.468 118.449 330.13 125.134C330.587 129.835 332.07 132.139 330.723 133.463C329.354 134.809 327.118 133.166 325.521 134.512C323.445 136.269 325.818 140.194 324.289 142.955C323.331 144.712 320.136 146.765 313.474 146.605C312.401 146.583 311.466 145.784 311.306 144.712C311.078 143.343 310.804 141.608 310.667 139.92C310.074 131.911 311.785 129.242 310.097 127.873C307.496 125.773 303.069 129.675 301.198 127.85C299.213 125.933 298.506 119.019 302.887 116.715Z" fill="black"/>
<path d="M318.813 121.207L318.676 123.397C318.608 124.424 318.631 125.451 318.699 126.501C318.859 128.44 319.087 131.771 319.064 133.642C319.041 136.403 310.553 136.928 310.553 136.928L309.481 135.719L308.477 135.764C308.294 135.764 308.089 135.742 307.907 135.65C307.473 135.422 307.268 134.966 307.336 134.532C307.747 132.114 308.431 126.752 307.656 122.576C307.701 122.53 312.424 118.697 318.813 121.207Z" fill="white"/>
<path d="M310.576 137.408C310.439 137.408 310.302 137.34 310.211 137.249L309.298 136.222L308.545 136.245C308.249 136.267 307.975 136.199 307.724 136.085C307.108 135.765 306.788 135.104 306.88 134.419C307.245 132.252 307.975 126.798 307.199 122.623C307.176 122.44 307.245 122.258 307.382 122.144C307.587 121.984 312.424 118.151 319.018 120.729C319.224 120.797 319.361 121.003 319.338 121.231L319.201 123.421C319.132 124.425 319.155 125.452 319.224 126.456C319.361 128.327 319.612 131.727 319.589 133.621C319.566 136.678 312.105 137.317 310.599 137.408H310.576ZM309.481 135.195C309.618 135.195 309.755 135.264 309.846 135.355L310.759 136.382C314.067 136.131 318.539 135.149 318.562 133.621C318.585 131.75 318.334 128.373 318.197 126.525C318.106 125.475 318.106 124.403 318.174 123.353L318.288 121.528C313.132 119.679 309.207 122.052 308.226 122.737C308.91 126.844 308.294 131.887 307.838 134.556C307.792 134.807 307.929 135.035 308.135 135.149C308.203 135.195 308.317 135.218 308.431 135.195H309.481Z" fill="black"/>
<path d="M320.318 127.94C320.318 127.94 320.638 122.669 322.988 123.331C325.338 124.015 324.859 129.788 320.318 127.94Z" fill="white"/>
<path d="M204.272 253.115H297.183C299.396 253.115 301.199 251.312 301.199 249.099V247.707H200.256V249.099C200.256 251.312 202.058 253.115 204.272 253.115Z" fill="white"/>
<path d="M297.183 253.615H204.272C201.785 253.615 199.754 251.584 199.754 249.097V247.705C199.754 247.431 199.982 247.203 200.256 247.203H301.199C301.473 247.203 301.701 247.431 301.701 247.705V249.097C301.701 251.584 299.67 253.615 297.183 253.615ZM200.758 248.184V249.074C200.758 251.014 202.332 252.588 204.272 252.588H297.183C299.123 252.588 300.697 251.014 300.697 249.074V248.184H200.758Z" fill="black"/>
<path d="M200.256 247.77H258.029L239.684 193.739C238.589 192.05 236.673 191.023 234.619 191.023H185.768C183.554 191.023 182.117 193.168 182.847 195.062C183.144 195.815 183.44 196.568 183.691 197.321L200.256 247.77Z" fill="white"/>
<path d="M258.006 248.298H200.256C200.028 248.298 199.846 248.161 199.777 247.955L183.212 197.53C183.029 197.005 182.824 196.457 182.619 195.932C182.527 195.727 182.459 195.499 182.368 195.293C181.957 194.244 182.117 193.057 182.778 192.122C183.463 191.141 184.558 190.57 185.767 190.57H234.596C236.832 190.57 238.886 191.666 240.095 193.514C240.118 193.559 240.141 193.582 240.141 193.628L258.486 247.659C258.531 247.819 258.508 247.978 258.417 248.115C258.326 248.206 258.189 248.298 258.006 248.298ZM200.621 247.271H257.322L239.228 193.97C238.201 192.441 236.49 191.529 234.619 191.529H185.767C184.878 191.529 184.102 191.939 183.6 192.647C183.143 193.308 183.029 194.153 183.303 194.906C183.394 195.111 183.463 195.339 183.554 195.544C183.76 196.069 183.988 196.64 184.17 197.187L200.621 247.271Z" fill="black"/>
<path d="M221.682 218.68C222.366 220.962 221.317 223.312 219.332 223.905C217.347 224.499 215.179 223.13 214.494 220.848C213.81 218.566 214.859 216.216 216.845 215.623C218.83 215.03 220.997 216.399 221.682 218.68Z" fill="black"/>
<path d="M360.249 204.99C360.249 204.99 357.42 240.882 349.388 254.458C339.805 270.681 291.501 248.822 291.501 248.822L285.888 245.651C282.078 243.506 277.56 243.027 273.407 244.373L264.326 247.293C264.326 247.293 271.81 238.303 278.199 234.881C281.188 233.261 285.067 234.79 288.33 236.866C293.966 240.425 300.583 242.114 307.245 241.909L326.457 241.338C329.674 241.247 332.321 238.737 332.618 235.52L335.516 195.156L360.249 204.99Z" fill="white"/>
<path d="M334.74 260.984C317.399 260.984 292.711 249.941 291.296 249.279L285.637 246.085C281.964 244.008 277.56 243.552 273.544 244.853L264.463 247.773C264.258 247.842 264.007 247.75 263.893 247.568C263.756 247.385 263.779 247.134 263.916 246.952C264.235 246.587 271.537 237.848 277.925 234.402C280.618 232.965 284.2 233.627 288.581 236.41C294.034 239.856 300.469 241.567 307.2 241.362L326.412 240.791C329.378 240.7 331.819 238.395 332.07 235.452L334.968 195.089C334.968 194.929 335.059 194.792 335.196 194.701C335.333 194.609 335.493 194.609 335.653 194.655L360.386 204.466C360.592 204.558 360.729 204.763 360.706 204.968C360.592 206.429 357.762 241.134 349.776 254.664C347.107 259.319 341.494 260.984 334.74 260.984ZM278.199 243.119C280.96 243.119 283.698 243.826 286.139 245.218L291.752 248.389C292.186 248.595 339.714 269.86 348.955 254.208C356.393 241.613 359.383 209.167 359.702 205.311L335.949 195.887L333.097 235.566C332.801 239.034 329.948 241.75 326.457 241.841L307.245 242.411C300.286 242.617 293.669 240.837 288.056 237.3C285.272 235.543 281.348 233.764 278.427 235.338C273.681 237.893 268.251 243.643 265.901 246.267L273.248 243.894C274.868 243.37 276.533 243.119 278.199 243.119Z" fill="black"/>
<path d="M364.745 207.522C364.745 207.522 367.779 184.385 364.425 176.24C356.645 157.233 344.757 154.586 342.84 154.016L331.865 200.973L364.745 207.522Z" fill="white"/>
<path d="M364.745 208.027C364.722 208.027 364.676 208.027 364.654 208.027L331.797 201.478C331.66 201.456 331.546 201.364 331.477 201.25C331.409 201.136 331.386 200.999 331.409 200.862L333.645 191.279C333.713 191.005 333.987 190.846 334.261 190.891C334.535 190.96 334.695 191.234 334.649 191.507L332.527 200.589L364.334 206.909C364.768 203.395 366.958 183.681 363.992 176.425C360.615 168.211 354.249 157.738 343.023 154.566L342.749 154.475C342.475 154.407 342.338 154.11 342.407 153.836C342.498 153.562 342.772 153.426 343.046 153.494L343.319 153.562C352.538 156.164 359.999 163.921 364.95 176.015C368.304 184.183 365.429 206.589 365.292 207.548C365.27 207.685 365.201 207.822 365.087 207.89C364.95 208.004 364.836 208.027 364.745 208.027Z" fill="black"/>
<path d="M222.471 395.665C212.987 395.665 203.883 394.099 195.351 391.008C195.097 390.923 194.991 390.648 195.076 390.415C195.16 390.182 195.435 390.055 195.668 390.14C206.551 394.077 218.343 395.517 230.707 394.353C235.217 393.929 239.705 393.442 244.109 392.871C244.363 392.828 244.596 393.019 244.638 393.273C244.68 393.527 244.49 393.76 244.236 393.802C239.832 394.374 235.323 394.861 230.792 395.284C227.997 395.538 225.224 395.665 222.471 395.665Z" fill="black"/>
<path d="M71.7312 243.97C69.5717 243.97 67.8145 242.213 67.8145 240.053C67.8145 237.894 69.5717 236.137 71.7312 236.137C73.8907 236.137 75.6479 237.894 75.6479 240.053C75.6479 242.213 73.8907 243.97 71.7312 243.97ZM71.7312 237.089C70.101 237.089 68.7672 238.423 68.7672 240.053C68.7672 241.684 70.101 243.017 71.7312 243.017C73.3614 243.017 74.6952 241.684 74.6952 240.053C74.6952 238.423 73.3825 237.089 71.7312 237.089Z" fill="black"/>
<path d="M75.8798 222.987C75.6258 222.987 75.4141 222.775 75.4141 222.521V218.88C75.4141 218.626 75.6258 218.414 75.8798 218.414C76.1339 218.414 76.3456 218.626 76.3456 218.88V222.521C76.3456 222.775 76.1339 222.987 75.8798 222.987Z" fill="black"/>
<path d="M75.8798 231.456C75.6258 231.456 75.4141 231.244 75.4141 230.99V227.349C75.4141 227.095 75.6258 226.883 75.8798 226.883C76.1339 226.883 76.3456 227.095 76.3456 227.349V230.99C76.3456 231.244 76.1339 231.456 75.8798 231.456Z" fill="black"/>
<path d="M73.4666 225.4H69.8251C69.5711 225.4 69.3594 225.189 69.3594 224.935C69.3594 224.68 69.5711 224.469 69.8251 224.469H73.4666C73.7207 224.469 73.9324 224.68 73.9324 224.935C73.9324 225.189 73.7207 225.4 73.4666 225.4Z" fill="black"/>
<path d="M81.9354 225.4H78.2939C78.0398 225.4 77.8281 225.189 77.8281 224.935C77.8281 224.68 78.0398 224.469 78.2939 224.469H81.9354C82.1894 224.469 82.4012 224.68 82.4012 224.935C82.4012 225.189 82.1894 225.4 81.9354 225.4Z" fill="black"/>
<path d="M394.829 88.5516C394.638 88.5516 394.448 88.4246 394.384 88.234L393.707 86.1169C393.622 85.8628 393.77 85.6088 394.003 85.5241C394.257 85.4394 394.511 85.5876 394.596 85.8205L395.273 87.9376C395.358 88.1917 395.21 88.4457 394.977 88.5304C394.913 88.5516 394.871 88.5516 394.829 88.5516Z" fill="black"/>
<path d="M397.199 95.9618C397.008 95.9618 396.818 95.8347 396.754 95.6442L396.077 93.527C395.992 93.273 396.14 93.0189 396.373 92.9342C396.627 92.8495 396.881 92.9977 396.966 93.2306L397.644 95.3478C397.728 95.6018 397.58 95.8559 397.347 95.9406C397.305 95.9618 397.241 95.9618 397.199 95.9618Z" fill="black"/>
<path d="M390.912 92.7447C390.722 92.7447 390.531 92.6177 390.467 92.4272C390.383 92.1731 390.531 91.9191 390.764 91.8344L392.881 91.1569C393.135 91.0722 393.389 91.2204 393.474 91.4533C393.558 91.7073 393.41 91.9614 393.177 92.0461L391.06 92.7236C390.997 92.7236 390.954 92.7447 390.912 92.7447Z" fill="black"/>
<path d="M398.322 90.3502C398.132 90.3502 397.941 90.2232 397.878 90.0326C397.793 89.7786 397.941 89.5245 398.174 89.4398L400.291 88.7624C400.545 88.6777 400.799 88.8259 400.884 89.0588C400.969 89.3128 400.82 89.5669 400.588 89.6516L398.47 90.329C398.407 90.3502 398.365 90.3502 398.322 90.3502Z" fill="black"/>
<path d="M370.417 67.7838C370.311 67.7838 370.205 67.7414 370.121 67.6779C367.982 65.8572 365.78 64.0788 363.579 62.3639C363.367 62.1945 363.346 61.9193 363.494 61.7076C363.663 61.4959 363.939 61.4747 364.15 61.6229C366.373 63.3378 368.575 65.1374 370.735 66.9581C370.925 67.1275 370.968 67.4239 370.798 67.6144C370.692 67.7414 370.544 67.7838 370.417 67.7838Z" fill="black"/>
<path d="M363.855 62.4698C363.749 62.4698 363.643 62.4274 363.558 62.3639C332.796 38.5037 296.127 24.8693 260.284 23.9801C260.03 23.9801 259.818 23.7683 259.818 23.4931C259.818 23.2391 260.03 23.0273 260.284 23.0273C260.284 23.0273 260.284 23.0273 260.305 23.0273C278.428 23.4719 296.593 27.0499 314.335 33.6554C331.95 40.2186 348.717 49.6187 364.151 61.6017C364.363 61.7711 364.384 62.0463 364.236 62.2581C364.13 62.4063 364.003 62.4698 363.855 62.4698Z" fill="black"/>
<path d="M349.182 63.6131C349.098 63.6131 348.992 63.5919 348.928 63.5284C325.555 47.8403 299.366 38.2708 273.156 35.8785C272.901 35.8573 272.711 35.6244 272.732 35.3703C272.753 35.1163 272.986 34.9257 273.24 34.9469C299.599 37.3605 325.957 46.9935 349.457 62.7662C349.669 62.9144 349.733 63.2108 349.584 63.4225C349.5 63.5284 349.352 63.6131 349.182 63.6131Z" fill="black"/>
<path d="M377.193 77.0521C376.791 77.0521 376.388 76.9886 375.986 76.8404C374.081 76.1841 373.086 74.0881 373.742 72.2039C374.398 70.2984 376.473 69.3034 378.378 69.9597C380.284 70.616 381.279 72.712 380.623 74.5962C380.305 75.5066 379.649 76.2476 378.76 76.6922C378.294 76.9251 377.743 77.0521 377.193 77.0521ZM377.193 70.7007C376.071 70.7007 375.012 71.3993 374.631 72.5214C374.144 73.9399 374.885 75.4854 376.304 75.9724C376.981 76.2053 377.722 76.1629 378.378 75.8454C379.035 75.5278 379.522 74.9773 379.755 74.2998C380.242 72.8813 379.501 71.3358 378.082 70.8489C377.786 70.743 377.489 70.7007 377.193 70.7007Z" fill="black"/>
<path d="M254.525 27.196C254.483 27.196 254.462 27.196 254.419 27.1748L248.131 25.7987C247.983 25.7564 247.835 25.6505 247.793 25.5023C247.729 25.3541 247.771 25.1847 247.877 25.0577C249.74 22.7288 251.815 20.5482 251.836 20.527C251.942 20.4212 252.112 20.3576 252.26 20.4C252.408 20.4212 252.556 20.5482 252.598 20.6964L254.948 26.582C255.012 26.7514 254.991 26.9208 254.864 27.069C254.8 27.1325 254.673 27.196 254.525 27.196ZM249.084 25.0577L253.763 26.0739L252.006 21.7126C251.371 22.3901 250.227 23.6816 249.084 25.0577Z" fill="black"/>
<path d="M445.541 383.928H362.483C357.499 383.928 353.775 379.351 354.764 374.464L367.37 313.222C368.436 308.064 372.955 304.379 378.23 304.379H449.459L445.541 383.928Z" fill="white"/>
<path d="M445.541 384.355H362.482C359.981 384.355 357.634 383.249 356.044 381.291C354.454 379.352 353.833 376.831 354.337 374.368L366.943 313.126C368.048 307.793 372.78 303.934 378.21 303.934H449.439C449.555 303.934 449.672 303.972 449.749 304.069C449.827 304.147 449.865 304.263 449.865 304.38L445.929 383.928C445.948 384.18 445.774 384.355 445.541 384.355ZM378.229 304.806C373.206 304.806 368.804 308.374 367.796 313.32L355.191 374.562C354.745 376.753 355.288 379.022 356.703 380.767C358.119 382.513 360.233 383.502 362.463 383.502H445.095L448.973 304.806H378.229Z" fill="black"/>
<path d="M456.169 383.92H440.054C435.07 383.92 431.347 379.343 432.336 374.456L446.221 306.989C446.531 305.457 447.889 304.352 449.459 304.352H453.609C455.335 304.352 456.751 305.67 456.906 307.377L462.588 376.958C462.86 380.72 459.912 383.92 456.169 383.92Z" fill="white"/>
<path d="M456.169 384.351H440.053C437.552 384.351 435.205 383.245 433.615 381.287C432.025 379.348 431.404 376.826 431.928 374.364L445.813 306.897C446.162 305.171 447.714 303.91 449.459 303.91H453.609C455.529 303.91 457.177 305.423 457.332 307.343L463.014 376.923C463.17 378.824 462.51 380.724 461.23 382.121C459.912 383.556 458.069 384.351 456.169 384.351ZM449.459 304.802C448.101 304.802 446.918 305.772 446.647 307.091L432.762 374.558C432.316 376.749 432.859 379.018 434.274 380.763C435.69 382.509 437.804 383.498 440.034 383.498H456.149C457.837 383.498 459.407 382.819 460.551 381.578C461.696 380.337 462.258 378.727 462.122 377.04L456.44 307.459C456.324 305.985 455.063 304.822 453.57 304.822H449.459V304.802Z" fill="black"/>
<path d="M434.216 336.956H369.192C368.96 336.956 368.766 336.762 368.766 336.53C368.766 336.297 368.96 336.103 369.192 336.103H434.216C435.961 336.103 437.435 334.92 437.842 333.233L443.582 309.031C443.641 308.798 443.873 308.662 444.106 308.72C444.339 308.779 444.475 309.011 444.416 309.244L438.676 333.446C438.191 335.502 436.349 336.956 434.216 336.956Z" fill="black"/>
<path d="M409.122 336.512L407.299 343.861C407.008 345.103 405.902 345.975 404.623 345.975H391.746C390.35 345.975 389.322 344.637 389.71 343.28L391.591 336.492H409.122V336.512Z" fill="white"/>
<path d="M404.623 346.418H391.746C390.951 346.418 390.195 346.05 389.71 345.41C389.225 344.77 389.07 343.955 389.283 343.18L391.164 336.392C391.222 336.198 391.377 336.082 391.571 336.082H409.102C409.238 336.082 409.354 336.14 409.432 336.257C409.51 336.354 409.548 336.489 409.51 336.625L407.687 343.975C407.376 345.41 406.096 346.418 404.623 346.418ZM391.92 336.955L390.117 343.412C389.981 343.917 390.078 344.46 390.408 344.886C390.737 345.313 391.222 345.546 391.746 345.546H404.623C405.709 345.546 406.639 344.809 406.892 343.762L408.579 336.935H391.92V336.955Z" fill="black"/>
<path d="M428.283 378.205H359.206C358.973 378.205 358.779 378.011 358.779 377.778C358.779 377.545 358.973 377.352 359.206 377.352H428.283C428.515 377.352 428.709 377.545 428.709 377.778C428.709 378.011 428.535 378.205 428.283 378.205Z" fill="black"/>
<path d="M394.634 301.586H389.243C387.788 301.586 386.605 302.769 386.605 304.223H397.271C397.271 302.769 396.088 301.586 394.634 301.586Z" fill="black"/>
<path d="M397.272 304.651H386.606C386.374 304.651 386.18 304.457 386.18 304.224C386.18 302.537 387.557 301.16 389.244 301.16H394.635C396.322 301.16 397.699 302.537 397.699 304.224C397.699 304.457 397.505 304.651 397.272 304.651ZM387.072 303.798H396.787C396.594 302.789 395.701 302.013 394.615 302.013H389.244C388.177 302.013 387.285 302.789 387.072 303.798Z" fill="black"/>
<path d="M437.863 301.586H432.471C431.017 301.586 429.834 302.769 429.834 304.223H440.5C440.5 302.769 439.317 301.586 437.863 301.586Z" fill="black"/>
<path d="M440.5 304.651H429.834C429.601 304.651 429.407 304.457 429.407 304.224C429.407 302.537 430.784 301.16 432.471 301.16H437.862C439.55 301.16 440.926 302.537 440.926 304.224C440.926 304.457 440.733 304.651 440.5 304.651ZM430.299 303.798H440.015C439.821 302.789 438.91 302.013 437.843 302.013H432.452C431.385 302.013 430.493 302.789 430.299 303.798Z" fill="black"/>
<path d="M436.446 301.447L437.318 296.289C437.939 292.623 435.476 289.656 431.811 289.656H399.483C395.818 289.656 392.347 292.623 391.746 296.289L390.873 301.447H393.355L394.034 297.433C394.519 294.582 397.214 292.274 400.065 292.274H430.356C433.207 292.274 435.127 294.582 434.642 297.433L433.963 301.447H436.446Z" fill="white"/>
<path d="M436.445 301.874H433.963C433.827 301.874 433.711 301.816 433.633 301.719C433.556 301.622 433.517 301.487 433.537 301.37L434.215 297.356C434.429 296.095 434.138 294.913 433.401 294.04C432.683 293.187 431.597 292.702 430.356 292.702H400.026C397.389 292.702 394.868 294.854 394.422 297.511L393.743 301.525C393.704 301.739 393.53 301.874 393.316 301.874H390.834C390.698 301.874 390.582 301.816 390.504 301.719C390.427 301.622 390.388 301.487 390.407 301.37L391.28 296.212C391.92 292.353 395.585 289.23 399.444 289.23H431.772C433.653 289.23 435.301 289.967 436.426 291.286C437.57 292.644 438.016 294.447 437.706 296.348L436.833 301.506C436.833 301.719 436.659 301.874 436.445 301.874ZM434.487 301.021H436.096L436.911 296.212C437.182 294.544 436.814 292.993 435.825 291.848C434.875 290.724 433.44 290.084 431.83 290.084H399.502C396.051 290.084 392.773 292.896 392.191 296.348L391.416 301.002H393.025L393.646 297.337C394.15 294.292 397.059 291.829 400.104 291.829H430.356C431.849 291.829 433.168 292.411 434.06 293.458C434.972 294.525 435.321 295.96 435.069 297.472L434.487 301.021Z" fill="black"/>
<path d="M430.201 287.523H401.791C400.646 287.523 399.56 288.454 399.367 289.598L398.94 292.081C398.746 293.225 399.522 294.156 400.666 294.156H429.076C430.22 294.156 431.306 293.225 431.5 292.081L431.927 289.598C432.121 288.454 431.345 287.523 430.201 287.523Z" fill="black"/>
<path d="M429.076 294.583H400.685C400.006 294.583 399.405 294.312 398.998 293.827C398.591 293.342 398.416 292.683 398.532 292.004L398.959 289.522C399.192 288.184 400.452 287.098 401.81 287.098H430.22C430.899 287.098 431.5 287.369 431.907 287.854C432.314 288.339 432.489 288.998 432.373 289.677L431.946 292.159C431.694 293.478 430.414 294.583 429.076 294.583ZM401.79 287.951C400.84 287.951 399.948 288.727 399.793 289.657L399.366 292.14C399.289 292.566 399.386 292.974 399.638 293.265C399.89 293.555 400.239 293.711 400.666 293.711H429.076C430.026 293.711 430.918 292.935 431.073 292.004L431.5 289.522C431.578 289.095 431.481 288.688 431.228 288.397C430.976 288.106 430.627 287.951 430.201 287.951H401.79Z" fill="black"/>
<path d="M439.898 378.206C439.743 378.206 439.607 378.129 439.529 377.993C439.413 377.78 439.49 377.528 439.684 377.411L450.602 371.186V309.13C450.602 308.897 450.796 308.703 451.029 308.703C451.262 308.703 451.456 308.897 451.456 309.13V371.438C451.456 371.593 451.378 371.729 451.242 371.807L440.111 378.148C440.053 378.187 439.975 378.206 439.898 378.206Z" fill="black"/>
<path d="M56.0052 350.352C56.0052 350.352 60.2395 371.968 68.1365 371.311C68.1365 371.311 72.1802 369.808 74.1068 372.772C75.6524 375.165 74.615 377.832 71.3334 378.107C68.327 378.34 63.6905 378.87 59.7526 375.122C55.3913 370.973 44.5091 360.387 45.843 355.221C46.4569 352.807 56.0052 350.352 56.0052 350.352Z" fill="white"/>
<path d="M68.2635 378.742C65.5324 378.742 62.3143 378.191 59.435 375.46C48.9975 365.552 44.4033 358.883 45.3983 355.093C46.0546 352.532 54.2691 350.33 55.9205 349.906C56.0476 349.885 56.1746 349.885 56.2804 349.97C56.3863 350.033 56.471 350.139 56.4922 350.266C56.5345 350.478 60.7476 371.353 68.0729 370.845C68.6446 370.654 72.5825 369.511 74.5302 372.517C75.3983 373.851 75.5465 375.291 74.9748 376.476C74.382 377.683 73.1117 378.424 71.3969 378.551L71.0793 378.572C70.2113 378.657 69.2797 378.742 68.2635 378.742ZM55.6453 350.944C52.0461 351.918 46.6686 353.844 46.2875 355.326C45.6947 357.655 47.6001 362.927 60.0701 374.783C63.7116 378.255 68.0729 377.895 70.9734 377.662L71.291 377.641C72.646 377.535 73.641 376.985 74.0856 376.074C74.5302 375.185 74.382 374.084 73.7045 373.026C72.0108 370.4 68.327 371.734 68.2847 371.734C68.2423 371.755 68.2 371.755 68.1576 371.755C68.0306 371.776 67.9036 371.776 67.7765 371.776C60.4089 371.798 56.344 354.204 55.6453 350.944Z" fill="black"/>
<path d="M40.571 304.534C60.7263 297.145 72.8998 300.194 83.7396 304.619C94.5794 309.043 108.087 302.861 108.087 302.861C111.157 301.168 113.464 296.785 113.464 296.785L130.444 302.565C129.957 310.568 125.13 322.403 121.488 331.464C117.826 340.525 128.454 345.585 130.719 348.888C132.984 352.191 127.226 359.177 131.058 363.179C134.89 367.18 133.852 374.336 128.792 371.711C123.733 369.107 123.394 357.59 123.733 355.155C124.071 352.72 110.479 344.569 108.574 344.527C106.647 344.485 104.636 371.351 109.103 370.504C115.031 369.361 118.694 377.999 112.596 378.168C106.499 378.338 102.836 378.338 100.74 373.976C98.6443 369.615 95.2992 347.787 94.0925 344.485C92.8857 341.203 88.0586 340.547 80.3945 339.107C72.7305 337.688 69.216 343.151 64.516 347.533C59.8159 351.916 48.2986 355.388 49.2725 359.495C50.077 362.819 54.6712 367.434 56.3861 369.065C56.746 369.403 57.2541 369.53 57.7411 369.446C61.4461 368.683 67.4164 373.87 63.8808 376.475C60.1123 379.248 52.1095 377.893 50.8604 377.11C49.6112 376.305 30.2394 353.715 38.8985 349.608C47.5576 345.501 45.9274 340.589 45.9274 340.589C45.6098 338.197 34.389 332.163 34.1349 323.059C33.8809 313.871 30.6416 313.786 30.6416 313.786C12.6035 310.61 -7.42465 271.252 28.3975 256.559C40.7616 251.478 40.8674 254.696 40.8674 254.696C42.0954 260.01 26.5767 260.773 19.7807 268.945C12.9846 277.117 14.8265 287.364 23.3586 297.166C32.1871 307.307 40.571 304.534 40.571 304.534Z" fill="white"/>
<path d="M70.0636 319.058C62.0185 318.19 39.5132 319.016 45.5047 302.883C62.7595 297.675 73.811 300.554 83.7404 304.619C90.0918 307.223 97.3748 306.165 102.308 304.852C105.272 307.922 107.368 310.95 107.368 313.427C107.368 321.98 100.614 328.649 93.5428 330.3C86.4715 331.931 78.3417 319.948 70.0636 319.058Z" fill="black"/>
<path d="M116.641 336.288C113.931 332.879 116.874 330.635 116.239 328.306C115.625 325.977 111.136 323.585 114.608 319.223C117.594 315.476 124.876 316.916 126.867 317.381C125.194 322.23 122.95 327.057 121.468 331.46C120.092 335.547 120.96 337.558 121.68 339.146C120.049 339.04 117.149 336.901 116.641 336.288Z" fill="black"/>
<path d="M32.5059 315.31C35.6816 313.934 41.5461 311.457 44.5101 316.707C47.6858 322.36 40.3181 326.51 47.5164 327.314C60.2828 328.754 52.7034 340.758 44.7641 338.895C44.5736 338.705 44.3619 338.493 44.129 338.281C42.2659 336.143 38.5397 333.306 36.3167 329.791C35.0888 327.801 34.2207 325.557 34.1361 323.122C34.0302 318.867 33.268 316.559 32.5059 315.31Z" fill="black"/>
<path d="M109.675 378.697C105.356 378.697 102.18 378.083 100.296 374.188C99.0048 371.52 97.3534 362.861 95.8714 355.218C94.9187 350.243 94.093 345.945 93.6272 344.654C92.5898 341.838 88.5461 341.097 81.8347 339.869L80.2892 339.594C74.1918 338.451 70.7832 341.923 67.1841 345.564C66.4219 346.347 65.6385 347.131 64.8129 347.893C62.9709 349.608 60.1551 351.175 57.424 352.678C53.3803 354.922 49.1883 357.23 49.7176 359.41C50.5009 362.671 55.2645 367.392 56.7042 368.747C56.9371 368.98 57.297 369.064 57.6357 369.001C60.4092 368.429 64.0718 370.801 65.1092 373.151C65.7444 374.59 65.4056 375.945 64.1565 376.856C60.261 379.714 52.0253 378.401 50.6068 377.491C49.4635 376.75 35.7021 360.956 36.2102 352.974C36.3161 351.175 37.1629 349.883 38.6873 349.163C46.8806 345.289 45.4833 340.758 45.4621 340.716C45.4621 340.695 45.441 340.652 45.441 340.631C45.3563 340.017 44.0013 338.747 42.5405 337.413C39.0684 334.216 33.8178 329.368 33.6485 323.059C33.4156 314.569 30.6421 314.252 30.5998 314.23C30.5786 314.23 30.5574 314.23 30.5363 314.23C20.0776 312.388 9.64003 299.093 8.20037 285.776C7.37468 278.091 8.85668 264.033 28.2074 256.094C34.7917 253.384 38.9837 252.579 40.6562 253.659C41.1855 253.998 41.2914 254.421 41.3125 254.59C42.0112 257.66 38.1368 259.248 33.225 261.259C28.8425 263.059 23.3591 265.303 20.1199 269.22C13.6838 276.99 14.9541 286.792 23.6979 296.827C32.1241 306.482 40.1269 304.089 40.381 304.026C61.4254 296.319 73.8742 300.024 83.8883 304.11C94.4105 308.408 107.727 302.417 107.876 302.353C110.755 300.765 112.999 296.531 113.041 296.489C113.147 296.277 113.38 296.192 113.613 296.256L130.593 302.036C130.783 302.099 130.931 302.29 130.91 302.501C130.423 310.483 125.787 321.958 122.06 331.168L121.912 331.549C119.287 338.027 124.389 342.41 128.094 345.585C129.386 346.686 130.487 347.639 131.101 348.528C132.223 350.18 131.63 352.487 130.974 354.922C130.233 357.78 129.449 360.723 131.397 362.755C134.107 365.592 134.425 369.657 133.027 371.52C132.053 372.812 130.444 373.002 128.581 372.028C123.267 369.276 122.886 357.695 123.288 354.985C123.288 354.922 123.31 354.626 122.696 353.906C119.922 350.645 110.353 345.12 108.659 344.887C107.473 346.242 105.653 364.004 108.003 369.043C108.468 370.038 108.871 369.954 109.019 369.932C111.305 369.488 113.55 370.356 115.032 372.261C116.175 373.722 116.535 375.501 115.921 376.771C115.391 377.872 114.227 378.507 112.618 378.549C111.581 378.676 110.607 378.697 109.675 378.697ZM77.9603 338.429C78.7437 338.429 79.5905 338.514 80.4797 338.662L82.0252 338.937C89.0542 340.229 93.3096 341.012 94.5164 344.315C95.0245 345.67 95.8502 350.01 96.8029 355.028C98.1791 362.247 99.9151 371.224 101.143 373.765C103.07 377.766 106.224 377.872 112.576 377.681C113.846 377.639 114.693 377.215 115.074 376.432C115.518 375.479 115.201 374.103 114.291 372.918C113.041 371.309 111.136 370.568 109.209 370.949C108.765 371.033 108.13 370.97 107.558 370.208C104.785 366.524 106.118 347.893 107.749 344.717C107.833 344.548 108.108 344.019 108.617 344.04C110.395 344.082 120.642 350.116 123.437 353.398C124.051 354.139 124.305 354.71 124.241 355.197C123.945 357.335 124.241 368.789 129.047 371.266C130.063 371.796 131.461 372.177 132.307 371.033C133.493 369.467 133.07 365.889 130.741 363.475C128.433 361.062 129.322 357.717 130.084 354.753C130.677 352.53 131.228 350.434 130.339 349.121C129.809 348.338 128.729 347.427 127.502 346.369C123.797 343.172 118.186 338.366 121.065 331.252L121.214 330.871C124.855 321.852 129.386 310.652 129.979 302.84L113.719 297.293C113.084 298.394 111.03 301.718 108.341 303.2C107.749 303.475 94.4952 309.424 83.5919 304.978C73.7472 300.956 61.4889 297.314 40.7621 304.915C40.7621 304.915 40.7621 304.915 40.7409 304.915C40.381 305.042 31.9759 307.667 23.0416 297.441C14.086 287.173 12.7734 276.651 19.4424 268.627C22.851 264.52 28.4403 262.233 32.9286 260.391C37.417 258.549 40.9738 257.089 40.4445 254.781C40.4445 254.76 40.4445 254.717 40.4233 254.696C40.4233 254.696 40.4022 254.569 40.1269 254.4C39.4494 254.019 36.9724 253.532 28.6097 256.962C9.85174 264.668 8.39091 278.26 9.19543 285.67C10.5927 298.606 20.6492 311.499 30.7268 313.299C31.2561 313.341 34.3683 313.934 34.6223 323.017C34.7917 328.945 39.8517 333.623 43.218 336.714C45.0387 338.387 46.2455 339.509 46.3937 340.441C46.5631 340.991 47.7275 345.903 39.1107 349.989C37.9039 350.561 37.2688 351.534 37.1629 352.953C36.6336 360.194 50.0352 375.945 51.1149 376.665C52.1523 377.321 59.9222 378.761 63.6061 376.051C64.4953 375.395 64.7282 374.527 64.2624 373.468C63.3732 371.478 60.1763 369.382 57.8263 369.869C57.17 369.996 56.5136 369.827 56.0479 369.382C54.1424 367.561 49.6117 362.988 48.8072 359.58C48.1086 356.7 52.4275 354.329 56.9794 351.81C59.6682 350.328 62.4205 348.803 64.1777 347.152C64.9822 346.411 65.7656 345.606 66.5277 344.844C69.7881 341.605 72.9215 338.429 77.9603 338.429Z" fill="black"/>
<path d="M126.569 281.838C124.579 281.647 119.816 281.308 116.598 282.176C116.132 282.303 115.624 282.176 115.285 281.838C114.121 280.737 111.474 278.111 109.315 274.724C106.456 270.193 104.911 273.623 104.361 276.269C103.874 278.598 104.043 283.044 105.356 287.13C105.694 288.168 105.927 289.248 106.054 290.327C106.562 294.646 107.409 306.058 122.631 306.058C122.631 306.058 136.795 306.693 136.795 288.168C136.795 288.168 138.32 274.491 135.694 271.506C134.276 269.897 129.428 278.387 127.946 281.118C127.649 281.605 127.12 281.88 126.569 281.838Z" fill="white"/>
<path d="M122.822 306.526C122.695 306.526 122.631 306.526 122.61 306.526C107.43 306.526 106.181 295.474 105.631 290.753L105.588 290.372C105.461 289.313 105.228 288.255 104.911 287.26C103.513 282.941 103.408 278.473 103.895 276.166C104.191 274.747 104.911 272.355 106.456 272.08C107.494 271.889 108.552 272.672 109.695 274.472C111.855 277.881 114.523 280.527 115.581 281.501C115.814 281.734 116.153 281.819 116.47 281.734C119.773 280.845 124.664 281.205 126.611 281.374C126.993 281.416 127.331 281.226 127.501 280.908C129.957 276.441 133.259 271.063 135.101 270.852C135.461 270.809 135.779 270.936 136.012 271.212C138.722 274.282 137.324 287.344 137.24 288.212C137.24 294.67 135.546 299.539 132.201 302.736C128.453 306.314 123.88 306.526 122.822 306.526ZM106.753 272.969C106.71 272.969 106.668 272.969 106.626 272.99C105.927 273.117 105.207 274.43 104.805 276.356C104.339 278.643 104.508 283.004 105.8 286.984C106.139 288.043 106.393 289.165 106.52 290.287L106.562 290.668C107.07 295.135 108.256 305.594 122.631 305.594C122.695 305.594 127.691 305.763 131.587 302.037C134.72 299.031 136.329 294.373 136.329 288.17C136.329 288.149 136.329 288.128 136.329 288.128C136.753 284.38 137.388 274.154 135.334 271.826C135.292 271.783 135.292 271.783 135.228 271.783C134.191 271.91 131.417 275.742 128.348 281.353C127.988 282.009 127.268 282.39 126.548 282.305C124.643 282.115 119.9 281.776 116.746 282.623C116.132 282.792 115.454 282.623 114.988 282.178C113.909 281.183 111.177 278.452 108.954 274.959C108.108 273.668 107.345 272.969 106.753 272.969Z" fill="black"/>
<path d="M207.715 70.0897C218.065 70.0897 226.455 61.6994 226.455 51.3495C226.455 40.9996 218.065 32.6094 207.715 32.6094C197.365 32.6094 188.975 40.9996 188.975 51.3495C188.975 61.6994 197.365 70.0897 207.715 70.0897Z" fill="white"/>
<path d="M207.749 70.4669C207.39 70.4669 207.015 70.4499 206.639 70.4328C201.536 70.1426 196.86 67.8897 193.463 64.0837C190.067 60.2776 188.343 55.3792 188.633 50.276C188.923 45.1728 191.176 40.4963 194.982 37.0999C198.788 33.7034 203.687 31.9796 208.79 32.2698C213.893 32.5599 218.57 34.8128 221.966 38.6189C225.362 42.425 227.086 47.3233 226.796 52.4265C226.506 57.5297 224.253 62.2062 220.447 65.6027C216.914 68.7602 212.442 70.4669 207.749 70.4669ZM207.697 32.9866C203.192 32.9866 198.891 34.6251 195.494 37.646C191.842 40.9059 189.674 45.4118 189.401 50.3102C189.128 55.2085 190.766 59.9192 194.043 63.5716C197.303 67.2241 201.809 69.3917 206.708 69.6648C211.606 69.9378 216.317 68.2994 219.969 65.0224C223.622 61.7625 225.789 57.2566 226.062 52.3583C226.335 47.4599 224.697 42.7492 221.42 39.0968C218.143 35.4614 213.654 33.2938 208.756 33.0207C208.397 33.0037 208.056 32.9866 207.697 32.9866Z" fill="black"/>
<path d="M219.69 63.3274C226.302 56.7155 226.302 45.9955 219.69 39.3836C213.078 32.7717 202.358 32.7716 195.746 39.3836C189.134 45.9955 189.134 56.7155 195.746 63.3274C202.358 69.9393 213.078 69.9393 219.69 63.3274Z" fill="white"/>
<path d="M218.303 61.9395C224.148 56.0941 224.148 46.6168 218.303 40.7714C212.457 34.926 202.98 34.926 197.135 40.7714C191.289 46.6168 191.289 56.0941 197.135 61.9395C202.98 67.7849 212.457 67.7849 218.303 61.9395Z" fill="white"/>
<path d="M207.748 67.1729C207.441 67.1729 207.134 67.1558 206.844 67.1387C202.628 66.8998 198.754 65.0394 195.938 61.8819C193.122 58.7244 191.705 54.6624 191.944 50.4467C191.961 50.2419 192.132 50.0712 192.336 50.0883C192.541 50.1053 192.712 50.276 192.695 50.4808C192.473 54.4917 193.821 58.366 196.501 61.3699C199.181 64.3738 202.867 66.1488 206.895 66.3707C210.906 66.5926 214.78 65.2442 217.784 62.5646C220.788 59.885 222.563 56.1985 222.785 52.1705C223.007 48.1596 221.659 44.2853 218.979 41.2814C216.299 38.2775 212.613 36.5025 208.585 36.2806C203.567 35.9905 198.771 38.2093 195.733 42.2031C195.613 42.3737 195.375 42.4079 195.204 42.2713C195.033 42.1519 194.999 41.9129 195.136 41.7422C198.327 37.5436 203.379 35.2224 208.636 35.5126C212.852 35.7515 216.726 37.6119 219.542 40.7694C222.358 43.9269 223.775 47.989 223.536 52.2046C223.297 56.4203 221.437 60.2947 218.279 63.1108C215.344 65.7733 211.64 67.1729 207.748 67.1729Z" fill="black"/>
<path d="M206.947 60.3276L206.828 58.2454C205.36 58.2624 203.926 57.9552 203.056 57.5114L203.568 54.9172C204.506 55.3609 205.821 55.7535 207.254 55.6682C208.5 55.5999 209.319 55.0708 209.268 54.2003C209.217 53.364 208.5 52.8861 206.845 52.4253C204.472 51.7768 202.817 50.7698 202.697 48.6534C202.595 46.7248 203.858 45.1545 206.162 44.5572L206.042 42.4749L208.176 42.3555L208.278 44.2841C209.746 44.267 210.753 44.523 211.487 44.8303L210.992 47.3392C210.412 47.1344 209.371 46.6906 207.8 46.776C206.384 46.8613 205.957 47.4928 205.991 48.1072C206.025 48.8241 206.828 49.2508 208.722 49.8311C211.367 50.5991 212.494 51.7426 212.596 53.7054C212.699 55.6511 211.419 57.392 208.944 57.9723L209.063 60.1911L206.947 60.3276Z" fill="black"/>
<path d="M47.965 178.941C56.7951 170.111 56.7951 155.795 47.965 146.965C39.1348 138.135 24.8184 138.135 15.9883 146.965C7.15822 155.795 7.15821 170.111 15.9883 178.941C24.8184 187.772 39.1349 187.772 47.965 178.941Z" fill="white"/>
<path d="M32.0182 186.025C24.0577 186.025 16.309 181.918 12.0323 174.55C5.63856 163.541 9.3859 149.398 20.3951 143.005C25.7303 139.914 31.9335 139.067 37.9039 140.655C43.853 142.242 48.8495 146.032 51.9405 151.367C58.3343 162.376 54.587 176.519 43.5778 182.913C39.9363 185.009 35.9561 186.025 32.0182 186.025ZM31.9547 140.803C28.1015 140.803 24.2906 141.819 20.8608 143.809C10.2963 149.949 6.7183 163.52 12.8369 174.084C18.9766 184.649 32.5475 188.227 43.112 182.108C53.6766 175.968 57.2546 162.398 51.136 151.833C48.172 146.71 43.3873 143.068 37.671 141.565C35.7655 141.036 33.8601 140.803 31.9547 140.803Z" fill="black"/>
<path d="M28.7994 176.454L45.1861 166.927C46.901 165.932 47.4727 163.73 46.4776 162.037L40.359 151.514C39.364 149.799 37.1622 149.228 35.4684 150.223L19.0817 159.75C17.3668 160.745 16.7952 162.947 17.7903 164.641L23.9088 175.163C24.8827 176.857 27.0845 177.449 28.7994 176.454Z" fill="white"/>
<path d="M26.9999 177.408C25.6026 177.408 24.2477 176.688 23.4855 175.397L17.3669 164.874C16.8165 163.943 16.6683 162.842 16.9435 161.805C17.2187 160.767 17.8962 159.878 18.8278 159.349L35.2145 149.822C37.1411 148.699 39.6393 149.356 40.7614 151.282L46.8799 161.805C47.4304 162.736 47.5786 163.837 47.3034 164.874C47.0281 165.912 46.3507 166.801 45.4191 167.33L29.0324 176.858C28.3973 177.239 27.6986 177.408 26.9999 177.408ZM37.2681 150.181C36.7388 150.181 36.2095 150.309 35.7014 150.605L19.3147 160.132C18.5949 160.555 18.0868 161.233 17.875 162.016C17.6633 162.821 17.7692 163.668 18.1926 164.388L24.3112 174.91C24.7346 175.63 25.4121 176.138 26.2166 176.349C27.0211 176.561 27.868 176.455 28.5878 176.032L28.8207 176.434L28.5878 176.032L44.9745 166.505C45.6943 166.081 46.2025 165.404 46.4142 164.599C46.6259 163.795 46.52 162.948 46.0966 162.228L39.978 151.706C39.3852 150.753 38.3478 150.181 37.2681 150.181Z" fill="black"/>
<path d="M32.4841 164.602C32.4206 164.602 32.3359 164.581 32.2724 164.56C32.0395 164.454 31.9548 164.158 32.0607 163.925L36.549 154.948C36.6549 154.715 36.9513 154.631 37.1842 154.736C37.4171 154.842 37.5017 155.139 37.3959 155.372L32.9075 164.348C32.8229 164.497 32.6535 164.602 32.4841 164.602Z" fill="black"/>
<path d="M32.4198 164.624H32.3986L22.3845 164.074C22.1305 164.052 21.9188 163.841 21.9399 163.587C21.9611 163.333 22.1728 163.121 22.4269 163.142L32.441 163.693C32.695 163.714 32.9068 163.925 32.8856 164.179C32.8856 164.434 32.6739 164.624 32.4198 164.624Z" fill="black"/>
<path d="M133.199 51.2283C143.268 41.7975 143.268 26.5072 133.199 17.0764C123.131 7.64565 106.806 7.64565 96.7371 17.0764C86.6682 26.5072 86.6682 41.7975 96.7371 51.2283C106.806 60.659 123.131 60.659 133.199 51.2283Z" fill="white"/>
<path d="M115.013 58.8142C113.155 58.8142 111.272 58.6261 109.389 58.2499C102.511 56.8625 96.636 53.0297 92.82 47.5038C89.004 41.9544 87.7237 35.3704 89.23 28.9275C90.7112 22.4845 94.8033 16.9822 100.703 13.408C106.603 9.83382 113.657 8.63459 120.536 10.0454C127.415 11.4328 133.29 15.2656 137.106 20.7915C144.964 32.2195 141.424 47.5038 129.223 54.8873C124.93 57.4739 120.009 58.8142 115.013 58.8142ZM114.913 10.5157C110.118 10.5157 105.423 11.809 101.306 14.278C95.6318 17.6876 91.7405 22.9783 90.3095 29.1391C88.8785 35.2999 90.1087 41.6252 93.7489 46.9159C97.3892 52.2302 103.038 55.8749 109.615 57.2152C116.193 58.5555 122.946 57.4034 128.595 53.9938C140.294 46.9395 143.658 32.29 136.152 21.3558C132.511 16.0416 126.863 12.3969 120.285 11.0566C118.503 10.7039 116.72 10.5157 114.913 10.5157Z" fill="black"/>
<path d="M118.244 47.2759C119.017 45.5659 118.163 43.5927 116.338 42.8686C114.512 42.1445 112.405 42.9438 111.632 44.6538C110.859 46.3638 111.712 48.337 113.538 49.0611C115.364 49.7851 117.471 48.9859 118.244 47.2759Z" fill="black"/>
<path d="M121.288 41.7144C121.74 41.7144 122.191 41.5263 122.518 41.1736C123.095 40.5152 122.995 39.5746 122.317 39.0338C120.058 37.2702 117.522 36.3531 114.936 36.4002C112.375 36.4237 109.84 37.4113 107.63 39.2219C106.953 39.7862 106.877 40.7503 107.48 41.3852C108.082 42.0201 109.112 42.0906 109.79 41.5263C111.421 40.186 113.179 39.4805 114.986 39.4805C116.794 39.457 118.576 40.1154 120.233 41.4087C120.535 41.5968 120.911 41.7144 121.288 41.7144Z" fill="black"/>
<path d="M104.869 36.3987C105.246 36.3987 105.623 36.2812 105.924 36.0225C108.736 33.7416 111.748 32.5659 114.886 32.5424C118.025 32.4954 121.087 33.6005 123.949 35.8109C124.652 36.3517 125.682 36.2577 126.234 35.5993C126.811 34.9409 126.711 33.9768 126.008 33.4595C122.594 30.8258 118.727 29.4385 114.836 29.4855C110.97 29.5326 107.129 30.9905 103.79 33.7181C103.112 34.2589 103.037 35.223 103.614 35.8814C103.94 36.2341 104.417 36.4223 104.869 36.3987Z" fill="black"/>
<path d="M101.028 30.9463C101.405 30.9463 101.782 30.8052 102.083 30.5701C106.049 27.3016 110.317 25.6086 114.786 25.5615C119.255 25.5145 123.573 27.09 127.615 30.2879C128.293 30.8287 129.322 30.7347 129.899 30.0998C130.477 29.4649 130.376 28.5008 129.699 27.96C127.439 26.1964 125.054 24.8326 122.594 23.9155C120.033 22.975 117.397 22.5047 114.736 22.5282C112.075 22.5517 109.439 23.0925 106.903 24.1036C104.468 25.0677 102.108 26.4786 99.8987 28.3127C99.2208 28.8771 99.1706 29.8411 99.748 30.476C100.1 30.7817 100.577 30.9463 101.028 30.9463Z" fill="black"/>
<path d="M38.8608 207.087C38.6664 207.004 38.472 206.92 38.2776 206.836C38.0444 206.735 37.9339 206.457 38.0429 206.204C38.1436 205.971 38.4219 205.86 38.6552 205.961C40.3101 206.721 42.071 207.343 43.8822 207.848C44.1322 207.91 44.2705 208.177 44.2087 208.427C44.1469 208.677 43.8797 208.816 43.6297 208.754C42.0018 208.305 40.3964 207.75 38.8608 207.087ZM33.4087 204.065C33.3893 204.057 33.3504 204.04 33.331 204.032C31.7131 202.919 30.268 201.672 28.9955 200.293C28.8237 200.103 28.8355 199.809 29.025 199.637C29.2145 199.465 29.5091 199.477 29.681 199.666C30.8925 200.973 32.3071 202.183 33.8667 203.272C34.0831 203.411 34.138 203.712 33.979 203.92C33.8562 204.097 33.6031 204.149 33.4087 204.065ZM49.1145 209.83C48.9201 209.746 48.815 209.562 48.8406 209.343C48.8829 209.084 49.1002 208.901 49.3587 208.944C51.1928 209.182 53.0663 209.276 54.9039 209.239C55.1597 209.234 55.3704 209.44 55.3753 209.696C55.3802 209.952 55.174 210.162 54.9182 210.167C53.0333 210.207 51.121 210.096 49.2395 209.861C49.1923 209.863 49.1534 209.847 49.1145 209.83ZM25.8544 195.87C25.7572 195.828 25.6768 195.747 25.6243 195.656C24.6946 193.963 23.9875 192.182 23.5503 190.31C23.4981 190.057 23.6545 189.801 23.8881 189.741C24.1412 189.689 24.3966 189.845 24.4571 190.079C24.889 191.856 25.5546 193.573 26.4511 195.182C26.5868 195.402 26.4888 195.683 26.2688 195.818C26.1323 195.921 25.9711 195.921 25.8544 195.87ZM60.3211 209.617C60.185 209.558 60.0825 209.422 60.0357 209.263C59.9835 209.01 60.1593 208.763 60.4318 208.719C62.2924 208.415 64.0977 207.973 65.831 207.429C66.0731 207.349 66.3368 207.486 66.4168 207.728C66.4968 207.97 66.3599 208.234 66.1179 208.314C64.3483 208.888 62.4679 209.344 60.5879 209.64C60.485 209.665 60.3988 209.65 60.3211 209.617ZM70.9966 206.2C70.8994 206.158 70.7995 206.069 70.7553 205.958C70.6475 205.727 70.7456 205.446 70.9766 205.338C72.6493 204.561 74.3168 203.69 75.9343 202.774C76.1542 202.638 76.4432 202.717 76.5704 202.956C76.7061 203.176 76.6275 203.465 76.3881 203.592C74.7343 204.539 73.0475 205.402 71.3663 206.198C71.255 206.242 71.1132 206.25 70.9966 206.2ZM23.1801 185.077C23.0052 185.002 22.8916 184.837 22.9088 184.637C22.9191 182.797 23.1437 180.888 23.5767 178.976C23.6385 178.726 23.8947 178.56 24.1447 178.622C24.3948 178.683 24.5609 178.94 24.4991 179.19C24.0912 181.043 23.8724 182.885 23.8595 184.678C23.8644 184.934 23.6387 185.137 23.3829 185.142C23.3051 185.108 23.2384 185.102 23.1801 185.077ZM25.5046 174.136C25.2713 174.035 25.1608 173.757 25.2615 173.523C25.3874 173.232 25.4854 172.951 25.6112 172.66C26.2573 171.163 27.0115 169.736 27.8294 168.429C27.969 168.212 28.2499 168.149 28.4664 168.289C28.6829 168.428 28.7461 168.709 28.6065 168.926C27.8054 170.194 27.0874 171.59 26.4665 173.029C26.349 173.301 26.2316 173.573 26.1336 173.854C26.0355 174.134 25.7573 174.245 25.5046 174.136ZM31.5085 164.713C31.4502 164.688 31.4113 164.671 31.3614 164.627C31.1812 164.456 31.1736 164.153 31.352 163.954C32.7066 162.578 34.2026 161.356 35.787 160.357C36.0069 160.221 36.3043 160.28 36.4399 160.5C36.5756 160.72 36.5164 161.018 36.2964 161.153C34.7483 162.122 33.3247 163.283 32.0147 164.609C31.8809 164.759 31.6835 164.789 31.5085 164.713ZM40.9423 158.777C40.8257 158.727 40.7258 158.638 40.6706 158.498C40.5906 158.256 40.7275 157.993 40.9696 157.913C42.7559 157.3 44.65 156.919 46.5742 156.734C46.8384 156.71 47.0575 156.897 47.0818 157.161C47.1062 157.425 46.9194 157.644 46.6552 157.669C44.8061 157.839 42.9981 158.235 41.2758 158.806C41.1535 158.822 41.0395 158.819 40.9423 158.777ZM74.5657 172.875C74.4685 172.833 74.3992 172.78 74.3466 172.688C73.4028 171.081 72.3308 169.558 71.1529 168.173C70.9811 167.984 71.0208 167.678 71.2102 167.506C71.3997 167.334 71.7054 167.374 71.8773 167.564C73.0967 169.012 74.1991 170.572 75.1735 172.215C75.3091 172.435 75.2305 172.724 75.0106 172.859C74.852 172.906 74.7018 172.933 74.5657 172.875ZM67.3237 164.33C67.2848 164.313 67.246 164.296 67.2155 164.26C65.784 163.089 64.255 162.037 62.631 161.152C62.4061 161.031 62.3235 160.742 62.4436 160.517C62.5637 160.292 62.853 160.21 63.0779 160.33C64.7324 161.251 66.3197 162.329 67.8011 163.544C68.0092 163.703 68.0362 164.015 67.8661 164.195C67.7239 164.364 67.5181 164.414 67.3237 164.33ZM52.0343 157.708C51.8399 157.624 51.7348 157.44 51.7604 157.22C51.8027 156.962 52.02 156.779 52.2869 156.802C54.1488 157.029 56.0215 157.445 57.8574 158.053C58.0991 158.135 58.2374 158.402 58.1562 158.644C58.0749 158.885 57.8077 159.024 57.566 158.942C55.7884 158.359 53.9825 157.949 52.1788 157.747C52.1205 157.722 52.0732 157.724 52.0343 157.708Z" fill="black"/>
<path d="M88.9807 194.132C88.9224 194.106 88.8725 194.062 88.8226 194.017C88.6507 193.828 88.6626 193.533 88.852 193.361C90.1952 192.119 91.533 190.783 92.7931 189.413C92.9715 189.213 93.2745 189.205 93.4548 189.375C93.6545 189.554 93.6621 189.857 93.492 190.037C92.2041 191.418 90.8579 192.774 89.4785 194.047C89.3531 194.177 89.1557 194.207 88.9807 194.132ZM96.6052 185.87C96.5663 185.853 96.5274 185.836 96.4969 185.8C96.2889 185.641 96.2535 185.349 96.4125 185.141C97.5449 183.693 98.6552 182.189 99.7045 180.612C99.844 180.396 100.144 180.341 100.361 180.481C100.577 180.62 100.632 180.921 100.493 181.137C99.4239 182.705 98.3162 184.256 97.156 185.715C97.0248 185.912 96.7996 185.954 96.6052 185.87ZM102.89 176.545C102.87 176.537 102.851 176.528 102.831 176.52C102.606 176.4 102.524 176.111 102.672 175.875C103.588 174.287 104.482 172.643 105.325 170.955C105.446 170.731 105.724 170.62 105.949 170.74C106.174 170.86 106.284 171.139 106.164 171.363C105.312 173.071 104.401 174.753 103.485 176.341C103.365 176.566 103.103 176.638 102.89 176.545ZM107.919 166.495C107.686 166.394 107.576 166.116 107.676 165.883C108.398 164.211 109.106 162.464 109.764 160.673C109.845 160.431 110.132 160.301 110.365 160.402C110.607 160.483 110.736 160.77 110.636 161.003C109.958 162.786 109.262 164.561 108.532 166.252C108.431 166.485 108.153 166.595 107.919 166.495ZM111.869 155.955C111.655 155.863 111.536 155.604 111.609 155.382C112.175 153.643 112.719 151.848 113.233 150.018C113.295 149.768 113.562 149.629 113.812 149.691C114.062 149.753 114.2 150.02 114.138 150.27C113.617 152.12 113.064 153.934 112.498 155.673C112.417 155.915 112.15 156.053 111.908 155.972C111.889 155.963 111.889 155.963 111.869 155.955ZM114.93 145.124C114.716 145.032 114.608 144.801 114.653 144.589C115.086 142.839 115.513 140.994 115.91 139.113C115.972 138.863 116.209 138.689 116.459 138.751C116.709 138.812 116.883 139.049 116.821 139.299C116.425 141.18 115.997 143.025 115.556 144.795C115.495 145.045 115.247 145.191 114.988 145.149C114.988 145.149 114.949 145.132 114.93 145.124ZM117.299 134.132C117.105 134.049 116.988 133.837 117.014 133.617C117.341 131.845 117.682 129.986 117.993 128.091C118.035 127.832 118.272 127.658 118.53 127.7C118.789 127.742 118.963 127.979 118.921 128.238C118.602 130.152 118.28 132.019 117.934 133.784C117.891 134.042 117.635 134.208 117.385 134.147C117.357 134.158 117.338 134.149 117.299 134.132Z" fill="black"/>
<path d="M119.165 102.722C119.009 102.655 118.896 102.49 118.885 102.301C118.831 100.503 118.717 98.6313 118.532 96.7071C118.508 96.443 118.695 96.2238 118.959 96.1995C119.223 96.1751 119.442 96.362 119.467 96.6261C119.642 98.5698 119.749 100.46 119.822 102.268C119.827 102.523 119.621 102.734 119.365 102.739C119.309 102.761 119.223 102.747 119.165 102.722ZM118.193 91.5105C118.037 91.4434 117.935 91.3069 117.916 91.1373C117.681 89.3297 117.386 87.4497 117.063 85.5807C117.011 85.3276 117.186 85.0806 117.439 85.0285C117.693 84.9763 117.94 85.1521 117.992 85.4052C118.307 87.2936 118.602 89.1736 118.836 90.9812C118.869 91.2259 118.693 91.4729 118.429 91.4972C118.357 91.5582 118.271 91.5441 118.193 91.5105ZM116.317 80.4164C116.181 80.3577 116.07 80.2406 116.043 80.0905C115.667 78.2908 115.26 76.455 114.834 74.6108C114.782 74.3577 114.938 74.1024 115.191 74.0502C115.444 73.998 115.699 74.1544 115.752 74.4075C116.197 76.2601 116.595 78.1153 116.972 79.9149C117.024 80.168 116.868 80.4234 116.614 80.4756C116.481 80.4641 116.395 80.45 116.317 80.4164ZM113.71 69.4678C113.574 69.4091 113.482 69.3004 113.447 69.1696C112.976 67.3754 112.447 65.5559 111.929 63.7643C111.849 63.5222 111.986 63.2585 112.247 63.1869C112.489 63.1069 112.753 63.2438 112.825 63.5053C113.362 65.3053 113.883 67.1442 114.353 68.9385C114.425 69.2 114.269 69.4553 114.016 69.5075C113.902 69.5044 113.788 69.5013 113.71 69.4678ZM110.485 58.6677C110.369 58.6173 110.277 58.5087 110.213 58.389C109.629 56.5916 109.008 54.8248 108.379 53.0773C108.299 52.8353 108.416 52.5631 108.658 52.4831C108.9 52.4031 109.172 52.5206 109.252 52.7627C109.882 54.5101 110.494 56.2964 111.098 58.1021C111.178 58.3442 111.041 58.608 110.799 58.6879C110.716 58.7211 110.602 58.718 110.485 58.6677ZM106.657 48.0912C106.54 48.0409 106.46 47.96 106.396 47.8403C105.689 46.0593 104.965 44.3172 104.227 42.6612C104.119 42.4302 104.237 42.1581 104.468 42.0503C104.699 41.9424 104.971 42.0599 105.079 42.2909C105.817 43.9469 106.532 45.7085 107.259 47.4978C107.358 47.7483 107.241 48.0204 106.999 48.1004C106.907 48.153 106.773 48.1415 106.657 48.0912Z" fill="black"/>
<path d="M135.347 214.414H132.023L131.218 217.971C130.456 218.119 129.694 218.31 128.974 218.564L126.518 215.896L123.639 217.569L124.719 221.041C124.126 221.549 123.576 222.099 123.089 222.671L119.616 221.591L117.944 224.47L120.612 226.926C120.357 227.646 120.146 228.408 120.019 229.171L116.462 229.975V233.299L120.019 234.104C120.167 234.866 120.357 235.628 120.612 236.348L117.944 238.804L119.616 241.683L123.089 240.603C123.597 241.196 124.147 241.746 124.719 242.233L123.639 245.705L126.518 247.378L128.974 244.71C129.694 244.964 130.456 245.176 131.218 245.303L132.023 248.86H135.347L136.151 245.303C136.914 245.155 137.676 244.964 138.396 244.71L140.851 247.378L143.731 245.705L142.651 242.233C143.244 241.725 143.794 241.175 144.281 240.603L147.753 241.683L149.426 238.804L146.758 236.348C147.012 235.628 147.224 234.866 147.351 234.104L150.908 233.299V229.975L147.351 229.171C147.203 228.408 147.012 227.646 146.758 226.926L149.426 224.47L147.753 221.591L144.281 222.671C143.773 222.078 143.223 221.528 142.651 221.041L143.731 217.569L140.851 215.896L138.396 218.564C137.676 218.31 136.914 218.098 136.151 217.971L135.347 214.414ZM142.27 231.669C142.27 236.411 138.438 240.243 133.695 240.243C128.953 240.243 125.121 236.411 125.121 231.669C125.121 226.926 128.953 223.094 133.695 223.094C138.417 223.073 142.27 226.926 142.27 231.669Z" fill="white"/>
<path d="M135.346 249.365H132.023C131.811 249.365 131.62 249.217 131.557 249.005L130.816 245.745C130.223 245.618 129.651 245.47 129.101 245.279L126.836 247.735C126.687 247.904 126.454 247.926 126.264 247.82L123.385 246.147C123.194 246.041 123.109 245.808 123.173 245.597L124.168 242.421C123.723 242.019 123.3 241.616 122.919 241.172L119.743 242.167C119.531 242.23 119.299 242.146 119.193 241.955L117.52 239.076C117.414 238.885 117.457 238.652 117.605 238.504L120.061 236.239C119.87 235.688 119.722 235.117 119.595 234.524L116.335 233.783C116.123 233.741 115.975 233.55 115.975 233.317V229.993C115.975 229.782 116.123 229.591 116.335 229.528L119.595 228.786C119.722 228.194 119.87 227.622 120.061 227.072L117.605 224.806C117.435 224.658 117.414 224.425 117.52 224.235L119.193 221.355C119.299 221.165 119.531 221.08 119.743 221.144L122.919 222.139C123.3 221.694 123.723 221.271 124.168 220.89L123.173 217.714C123.109 217.502 123.194 217.269 123.385 217.163L126.264 215.491C126.454 215.385 126.687 215.427 126.836 215.576L129.101 218.031C129.651 217.841 130.223 217.693 130.816 217.566L131.557 214.305C131.599 214.094 131.79 213.945 132.023 213.945H135.346C135.558 213.945 135.749 214.094 135.812 214.305L136.553 217.566C137.146 217.693 137.718 217.841 138.268 218.031L140.534 215.576C140.682 215.406 140.915 215.385 141.105 215.491L143.984 217.163C144.175 217.269 144.26 217.502 144.196 217.714L143.201 220.89C143.646 221.271 144.069 221.694 144.45 222.139L147.626 221.144C147.838 221.08 148.071 221.165 148.176 221.355L149.849 224.235C149.955 224.425 149.912 224.658 149.764 224.806L147.308 227.072C147.499 227.622 147.647 228.194 147.774 228.786L151.035 229.528C151.246 229.57 151.394 229.76 151.394 229.993V233.317C151.394 233.529 151.246 233.719 151.035 233.783L147.774 234.524C147.647 235.117 147.499 235.688 147.308 236.239L149.764 238.504C149.934 238.652 149.955 238.885 149.849 239.076L148.176 241.955C148.071 242.146 147.838 242.23 147.626 242.167L144.45 241.172C144.048 241.616 143.646 242.04 143.201 242.421L144.196 245.597C144.26 245.808 144.175 246.041 143.984 246.147L141.105 247.82C140.915 247.926 140.682 247.883 140.534 247.735L138.268 245.279C137.718 245.47 137.146 245.618 136.553 245.745L135.812 249.005C135.749 249.217 135.558 249.365 135.346 249.365ZM132.382 248.434H134.965L135.685 245.258C135.728 245.067 135.876 244.94 136.066 244.898C136.807 244.771 137.548 244.58 138.226 244.326C138.395 244.263 138.607 244.305 138.734 244.453L140.936 246.846L143.18 245.554L142.206 242.442C142.143 242.273 142.206 242.061 142.354 241.955C142.926 241.468 143.455 240.939 143.942 240.367C144.069 240.219 144.26 240.177 144.429 240.219L147.541 241.193L148.833 238.949L146.44 236.747C146.292 236.62 146.25 236.429 146.313 236.239C146.567 235.54 146.758 234.82 146.885 234.079C146.927 233.889 147.054 233.741 147.245 233.698L150.421 232.978V230.396L147.245 229.676C147.054 229.633 146.927 229.485 146.885 229.295C146.758 228.554 146.567 227.813 146.313 227.135C146.25 226.966 146.292 226.754 146.44 226.627L148.833 224.425L147.541 222.181L144.429 223.155C144.26 223.218 144.048 223.155 143.942 223.007C143.455 222.435 142.926 221.906 142.354 221.419C142.206 221.292 142.164 221.101 142.206 220.932L143.18 217.82L140.936 216.528L138.734 218.921C138.607 219.069 138.416 219.111 138.226 219.048C137.527 218.794 136.807 218.603 136.066 218.476C135.876 218.434 135.728 218.307 135.685 218.116L134.965 214.94H132.382L131.663 218.116C131.62 218.307 131.472 218.434 131.282 218.476C130.541 218.603 129.8 218.794 129.122 219.048C128.953 219.111 128.741 219.069 128.614 218.921L126.412 216.528L124.168 217.82L125.142 220.932C125.205 221.101 125.142 221.313 124.994 221.419C124.422 221.906 123.893 222.435 123.406 223.007C123.279 223.155 123.088 223.197 122.919 223.155L119.807 222.181L118.515 224.425L120.908 226.627C121.056 226.754 121.098 226.945 121.035 227.135C120.781 227.834 120.59 228.554 120.463 229.295C120.421 229.485 120.294 229.633 120.103 229.676L116.927 230.396V232.978L120.103 233.698C120.294 233.741 120.421 233.889 120.463 234.079C120.59 234.82 120.781 235.561 121.035 236.239C121.098 236.408 121.056 236.62 120.908 236.747L118.515 238.949L119.807 241.193L122.919 240.219C123.088 240.156 123.3 240.219 123.406 240.367C123.893 240.939 124.422 241.468 124.994 241.955C125.142 242.082 125.184 242.273 125.142 242.442L124.168 245.554L126.412 246.846L128.614 244.453C128.741 244.305 128.932 244.263 129.122 244.326C129.821 244.58 130.541 244.771 131.282 244.898C131.472 244.94 131.62 245.067 131.663 245.258L132.382 248.434ZM133.674 240.706C128.677 240.706 124.634 236.641 124.634 231.666C124.634 226.691 128.699 222.626 133.674 222.626C138.67 222.626 142.714 226.691 142.714 231.666C142.714 236.641 138.67 240.706 133.674 240.706ZM133.674 223.557C129.207 223.557 125.565 227.199 125.565 231.666C125.565 236.133 129.207 239.774 133.674 239.774C138.141 239.774 141.783 236.133 141.783 231.666C141.783 227.177 138.162 223.557 133.674 223.557Z" fill="black"/>
<path d="M68.1419 176.824H63.9051L62.8813 181.345C61.9048 181.518 60.944 181.77 60.0304 182.101L56.8961 178.699L53.2262 180.825L54.5965 185.251C53.8405 185.881 53.1475 186.59 52.5017 187.346L48.0758 185.975L45.9495 189.645L49.3516 192.779C49.0208 193.693 48.7688 194.654 48.5956 195.63L44.0752 196.654V200.891L48.5956 201.915C48.7688 202.891 49.0208 203.852 49.3516 204.766L45.9495 207.9L48.0758 211.57L52.5017 210.2C53.1317 210.956 53.8405 211.649 54.5965 212.294L53.2262 216.72L56.8961 218.847L60.0304 215.444C60.944 215.775 61.9048 216.027 62.8813 216.2L63.9051 220.721H68.1419L69.1657 216.2C70.1423 216.027 71.103 215.775 72.0166 215.444L75.1509 218.847L78.8208 216.72L77.4505 212.294C78.2065 211.664 78.8995 210.956 79.5453 210.2L83.9712 211.57L86.0975 207.9L82.6954 204.766C83.0262 203.852 83.2782 202.891 83.4514 201.915L87.9718 200.891V196.654L83.4514 195.63C83.2782 194.654 83.0262 193.693 82.6954 192.779L86.0975 189.645L83.9712 185.975L79.5453 187.346C78.9153 186.59 78.2065 185.897 77.4505 185.251L78.8208 180.825L75.1509 178.699L72.0166 182.116C71.103 181.786 70.1423 181.534 69.1657 181.36L68.1419 176.824ZM76.9465 198.78C76.9465 204.813 72.0638 209.695 66.0314 209.695C59.9989 209.695 55.1163 204.813 55.1163 198.78C55.1163 192.748 59.9989 187.865 66.0314 187.865C72.0481 187.85 76.9465 192.748 76.9465 198.78Z" fill="white"/>
<path d="M68.1419 221.066H63.905C63.7475 221.066 63.6058 220.956 63.5585 220.798L62.582 216.499C61.7315 216.341 60.9124 216.121 60.1091 215.837L57.1323 219.066C57.0221 219.192 56.8488 219.208 56.707 219.129L53.0372 217.003C52.8954 216.924 52.8324 216.751 52.8797 216.593L54.187 212.388C53.5412 211.836 52.9427 211.222 52.3914 210.592L48.186 211.899C48.0285 211.947 47.8553 211.884 47.7765 211.742L45.6502 208.072C45.5714 207.93 45.6029 207.757 45.7132 207.647L48.9421 204.67C48.6743 203.882 48.4538 203.048 48.2805 202.197L43.9806 201.221C43.8231 201.189 43.7129 201.047 43.7129 200.874V196.637C43.7129 196.48 43.8231 196.338 43.9806 196.291L48.2963 195.346C48.4538 194.495 48.6743 193.676 48.9578 192.873L45.729 189.896C45.6029 189.786 45.5872 189.612 45.666 189.471L47.7923 185.801C47.871 185.659 48.0443 185.596 48.2018 185.643L52.4072 186.951C52.9584 186.305 53.5727 185.706 54.2027 185.155L52.8954 180.95C52.8482 180.792 52.9112 180.619 53.0529 180.54L56.7228 178.414C56.8645 178.335 57.0378 178.367 57.1481 178.477L60.1249 181.706C60.9124 181.438 61.7472 181.217 62.5977 181.044L63.5743 176.744C63.6058 176.587 63.7475 176.477 63.9208 176.477H68.1419C68.2994 176.477 68.4412 176.587 68.4884 176.744L69.4492 181.044C70.2997 181.202 71.1187 181.422 71.922 181.706L74.8989 178.477C75.0091 178.351 75.1824 178.335 75.3241 178.414L78.994 180.54C79.1357 180.619 79.1987 180.792 79.1515 180.95L77.8442 185.155C78.49 185.706 79.0885 186.321 79.6398 186.951L83.8451 185.643C84.0026 185.596 84.1759 185.659 84.2547 185.801L86.381 189.471C86.4597 189.612 86.4282 189.786 86.318 189.896L83.0891 192.873C83.3569 193.66 83.5774 194.495 83.7506 195.346L88.0505 196.322C88.208 196.354 88.3183 196.495 88.3183 196.669V200.906C88.3183 201.063 88.208 201.205 88.0505 201.252L83.7506 202.229C83.5931 203.079 83.3726 203.898 83.0891 204.701L86.318 207.678C86.444 207.789 86.4597 207.962 86.381 208.104L84.2547 211.773C84.1759 211.915 84.0026 211.978 83.8451 211.931L79.6398 210.624C79.0885 211.269 78.4742 211.868 77.8442 212.419L79.1515 216.625C79.1987 216.782 79.1357 216.955 78.994 217.034L75.3241 219.16C75.1824 219.239 75.0091 219.208 74.8989 219.097L71.922 215.853C71.1345 216.121 70.2997 216.341 69.4492 216.514L68.4884 220.814C68.4412 220.956 68.2994 221.066 68.1419 221.066ZM64.1728 220.373H67.8584L68.8192 216.121C68.8507 215.979 68.9609 215.884 69.1027 215.853C70.0635 215.68 71.0085 215.428 71.9063 215.113C72.0323 215.065 72.1898 215.097 72.2843 215.207L75.2296 218.404L78.427 216.562L77.1354 212.403C77.0882 212.277 77.1354 212.12 77.2457 212.041C77.986 211.427 78.6632 210.734 79.2932 209.994C79.3877 209.883 79.5295 209.852 79.6555 209.883L83.8136 211.175L85.6564 207.978L82.4591 205.032C82.3488 204.938 82.3173 204.796 82.3646 204.654C82.6796 203.756 82.9316 202.811 83.1049 201.851C83.1364 201.709 83.2309 201.599 83.3726 201.567L87.6253 200.606V196.921L83.3726 195.96C83.2309 195.928 83.1364 195.818 83.1049 195.676C82.9316 194.716 82.6796 193.771 82.3646 192.873C82.3173 192.747 82.3488 192.589 82.4591 192.495L85.6564 189.549L83.8136 186.352L79.6555 187.644C79.5295 187.691 79.372 187.644 79.2932 187.533C78.679 186.793 77.986 186.116 77.2457 185.486C77.1354 185.391 77.1039 185.25 77.1354 185.124L78.427 180.965L75.2296 179.154L72.2843 182.351C72.1898 182.462 72.048 182.493 71.9063 182.446C71.0085 182.131 70.0635 181.879 69.1027 181.706C68.9609 181.674 68.8507 181.58 68.8192 181.438L67.8584 177.185H64.1728L63.212 181.438C63.1805 181.58 63.0702 181.674 62.9285 181.706C61.9677 181.879 61.0227 182.131 60.1249 182.446C59.9989 182.493 59.8414 182.462 59.7469 182.351L56.8015 179.154L53.6042 180.997L54.8957 185.155C54.943 185.281 54.8957 185.439 54.7855 185.517C54.0452 186.147 53.3679 186.825 52.7379 187.565C52.6434 187.675 52.5017 187.707 52.3757 187.675L48.2175 186.384L46.3747 189.581L49.5721 192.526C49.6823 192.621 49.7138 192.763 49.6666 192.904C49.3516 193.802 49.0996 194.747 48.9263 195.708C48.8948 195.85 48.8003 195.96 48.6585 195.991L44.4059 196.952V200.638L48.6585 201.599C48.8003 201.63 48.8948 201.74 48.9263 201.882C49.0996 202.843 49.3516 203.788 49.6666 204.686C49.7138 204.812 49.6823 204.969 49.5721 205.064L46.3747 208.009L48.2175 211.206L52.3757 209.915C52.5017 209.868 52.6592 209.915 52.7379 210.025C53.3679 210.765 54.0452 211.443 54.7855 212.073C54.8957 212.167 54.9272 212.309 54.8957 212.435L53.6042 216.593L56.8015 218.436L59.7469 215.239C59.8414 215.128 59.9831 215.097 60.1249 215.144C61.0227 215.459 61.9677 215.711 62.9285 215.884C63.0702 215.916 63.1805 216.01 63.212 216.152L64.1728 220.373ZM66.0156 210.041C59.7941 210.041 54.7382 204.985 54.7382 198.764C54.7382 195.755 55.9038 192.92 58.0458 190.794C60.1722 188.667 63.0072 187.486 66.0156 187.486C72.237 187.486 77.2929 192.542 77.2929 198.764C77.2929 204.985 72.237 210.041 66.0156 210.041ZM66.0156 188.211C63.1962 188.211 60.5344 189.313 58.5341 191.314C56.5338 193.314 55.4313 195.96 55.4313 198.795C55.4313 204.623 60.1722 209.364 65.9998 209.364C71.8275 209.364 76.5684 204.623 76.5684 198.795C76.5999 192.952 71.859 188.211 66.0156 188.211Z" fill="black"/>
<path d="M149.89 145.195H225.112C227.377 145.195 228.69 143.353 228.034 141.087L213.552 91.3768C212.896 89.1114 210.504 87.2695 208.238 87.2695H132.995C130.73 87.2695 129.417 89.1114 130.073 91.3768L144.555 141.087C145.232 143.353 147.603 145.195 149.89 145.195Z" fill="white"/>
<path d="M225.111 145.679H149.889C147.433 145.679 144.829 143.688 144.13 141.233L129.649 91.522C129.268 90.2517 129.437 89.045 130.115 88.1346C130.75 87.2666 131.787 86.8008 133.015 86.8008H208.237C210.693 86.8008 213.297 88.7909 213.996 91.2468L228.477 140.957C228.858 142.228 228.689 143.434 228.011 144.345C227.355 145.192 226.318 145.679 225.111 145.679ZM132.994 87.7112C132.084 87.7112 131.321 88.0499 130.856 88.6639C130.369 89.3202 130.242 90.2306 130.538 91.2256L145.019 140.936C145.633 143.011 147.814 144.726 149.889 144.726H225.111C226.021 144.726 226.784 144.387 227.249 143.773C227.736 143.117 227.863 142.206 227.567 141.211L213.086 91.5008C212.472 89.426 210.291 87.7112 208.216 87.7112H132.994Z" fill="black"/>
<path d="M153.551 101.12H149.402C148.47 101.12 147.517 100.401 147.263 99.4691L146.057 95.3195C145.908 94.8114 145.993 94.3244 146.268 93.9645C146.522 93.6046 146.967 93.4141 147.454 93.4141H151.603C152.535 93.4141 153.488 94.1339 153.742 95.0654L154.949 99.215C155.097 99.7232 155.012 100.21 154.737 100.57C154.483 100.909 154.038 101.12 153.551 101.12ZM147.433 94.3456C147.306 94.3456 147.115 94.3668 147.009 94.515C146.903 94.642 146.903 94.8325 146.967 95.0443L148.174 99.1939C148.322 99.7232 148.894 100.168 149.423 100.168H153.572C153.699 100.168 153.89 100.147 153.996 99.9984C154.102 99.8714 154.102 99.6808 154.038 99.4691L152.831 95.3195C152.683 94.7902 152.112 94.3456 151.582 94.3456H147.433Z" fill="black"/>
<path d="M144.892 101.12H140.742C139.811 101.12 138.858 100.401 138.604 99.4691L137.397 95.3195C137.249 94.8114 137.334 94.3244 137.609 93.9645C137.863 93.6046 138.308 93.4141 138.795 93.4141H142.944C143.876 93.4141 144.829 94.1339 145.083 95.0654L146.289 99.215C146.438 99.7232 146.353 100.21 146.078 100.57C145.824 100.909 145.379 101.12 144.892 101.12ZM138.773 94.3456C138.646 94.3456 138.456 94.3668 138.35 94.515C138.244 94.642 138.244 94.8325 138.308 95.0443L139.514 99.1939C139.663 99.7232 140.234 100.168 140.764 100.168H144.913C145.04 100.168 145.231 100.147 145.337 99.9984C145.443 99.8714 145.443 99.6808 145.379 99.4691L144.172 95.3195C144.024 94.7902 143.452 94.3456 142.923 94.3456H138.773Z" fill="black"/>
<path d="M156.325 110.605H152.175C151.244 110.605 150.291 109.885 150.037 108.953L148.83 104.804C148.682 104.296 148.766 103.809 149.042 103.449C149.296 103.089 149.74 102.898 150.227 102.898H154.377C155.308 102.898 156.261 103.618 156.515 104.55L157.722 108.699C157.87 109.208 157.785 109.694 157.51 110.054C157.235 110.393 156.812 110.605 156.325 110.605ZM150.206 103.83C150.079 103.83 149.889 103.851 149.783 103.999C149.677 104.126 149.677 104.317 149.74 104.529L150.947 108.678C151.095 109.208 151.667 109.652 152.196 109.652H156.346C156.473 109.652 156.663 109.631 156.769 109.483C156.875 109.356 156.875 109.165 156.812 108.953L155.605 104.804C155.457 104.275 154.885 103.83 154.356 103.83H150.206Z" fill="black"/>
<path d="M147.665 110.605H143.516C142.584 110.605 141.632 109.885 141.378 108.953L140.171 104.804C140.023 104.296 140.107 103.809 140.383 103.449C140.637 103.089 141.081 102.898 141.568 102.898H145.718C146.649 102.898 147.602 103.618 147.856 104.55L149.063 108.699C149.211 109.208 149.126 109.694 148.851 110.054C148.576 110.393 148.152 110.605 147.665 110.605ZM141.547 103.83C141.42 103.83 141.229 103.851 141.124 103.999C141.018 104.126 141.018 104.317 141.081 104.529L142.288 108.678C142.436 109.208 143.008 109.652 143.537 109.652H147.687C147.814 109.652 148.004 109.631 148.11 109.483C148.216 109.356 148.216 109.165 148.152 108.953L146.946 104.804C146.797 104.275 146.226 103.83 145.697 103.83H141.547Z" fill="black"/>
<path d="M152.959 112.852H157.108C157.828 112.852 158.59 113.444 158.802 114.164L160.009 118.314C160.221 119.034 159.797 119.626 159.077 119.626H154.928C154.208 119.626 153.446 119.034 153.234 118.314L152.027 114.164C151.816 113.423 152.239 112.852 152.959 112.852Z" fill="white"/>
<path d="M144.299 112.852H148.448C149.168 112.852 149.93 113.444 150.142 114.164L151.349 118.314C151.56 119.034 151.137 119.626 150.417 119.626H146.268C145.548 119.626 144.786 119.034 144.574 118.314L143.367 114.164C143.155 113.423 143.579 112.852 144.299 112.852Z" fill="white"/>
<path d="M155.732 122.336H159.882C160.602 122.336 161.364 122.929 161.576 123.649L162.782 127.798C162.994 128.518 162.571 129.111 161.851 129.111H157.701C156.981 129.111 156.219 128.518 156.007 127.798L154.801 123.649C154.589 122.908 155.012 122.336 155.732 122.336Z" fill="white"/>
<path d="M147.073 122.336H151.222C151.942 122.336 152.704 122.929 152.916 123.649L154.123 127.798C154.335 128.518 153.911 129.111 153.191 129.111H149.042C148.322 129.111 147.56 128.518 147.348 127.798L146.141 123.649C145.929 122.908 146.332 122.336 147.073 122.336Z" fill="white"/>
<path d="M158.484 131.816H162.634C163.354 131.816 164.116 132.409 164.328 133.129L165.534 137.279C165.746 137.998 165.323 138.591 164.603 138.591H160.453C159.733 138.591 158.971 137.998 158.759 137.279L157.553 133.129C157.341 132.388 157.764 131.816 158.484 131.816Z" fill="white"/>
<path d="M149.825 131.816H153.975C154.694 131.816 155.457 132.409 155.668 133.129L156.875 137.279C157.087 137.998 156.663 138.591 155.944 138.591H151.794C151.074 138.591 150.312 137.998 150.1 137.279L148.893 133.129C148.682 132.388 149.105 131.816 149.825 131.816Z" fill="white"/>
<path d="M219.817 139.056H171.016C170.805 139.056 170.614 138.929 170.572 138.717L157.53 94.003C157.488 93.8548 157.509 93.7066 157.615 93.6007C157.7 93.4737 157.848 93.4102 157.996 93.4102H206.796C207.008 93.4102 207.198 93.5584 207.241 93.7489L220.261 138.463C220.304 138.611 220.282 138.759 220.177 138.865C220.113 138.971 219.965 139.056 219.817 139.056ZM171.376 138.103H219.203L206.457 94.3205H158.61L171.376 138.103Z" fill="black"/>
<path d="M211.222 127.136C211.116 127.136 211.01 127.093 210.926 127.03L200.107 118.646C199.281 117.99 198.265 117.714 197.334 117.842C196.593 117.947 195.957 118.328 195.555 118.9L192.782 122.796C192.422 123.304 191.85 123.642 191.194 123.748C190.432 123.854 189.606 123.621 188.95 123.113L176.543 113.48C175.717 112.824 174.701 112.549 173.77 112.676C173.029 112.782 172.394 113.163 171.991 113.734L171.25 114.772C171.102 114.983 170.806 115.026 170.594 114.878C170.382 114.729 170.34 114.433 170.488 114.221L171.229 113.184C171.78 112.4 172.648 111.892 173.643 111.744C174.828 111.575 176.099 111.935 177.136 112.739L189.542 122.372C190.008 122.732 190.559 122.901 191.067 122.817C191.342 122.774 191.744 122.647 192.02 122.245L194.793 118.35C195.343 117.566 196.211 117.058 197.207 116.91C198.392 116.741 199.662 117.101 200.7 117.905L211.518 126.289C211.73 126.458 211.751 126.734 211.603 126.945C211.497 127.072 211.37 127.136 211.222 127.136Z" fill="black"/>
<path d="M197.502 111.995C194.284 111.995 190.875 109.37 189.944 106.152C189.457 104.501 189.669 102.934 190.558 101.77C191.384 100.669 192.717 100.055 194.305 100.055C197.544 100.055 200.932 102.68 201.863 105.898C202.35 107.549 202.139 109.116 201.249 110.28C200.403 111.381 199.069 111.995 197.502 111.995ZM194.284 100.986C193.014 100.986 191.955 101.473 191.299 102.341C190.6 103.273 190.431 104.522 190.833 105.898C191.659 108.756 194.644 111.064 197.481 111.064C198.751 111.064 199.81 110.577 200.466 109.709C201.165 108.777 201.334 107.528 200.932 106.152C200.127 103.294 197.142 100.986 194.284 100.986Z" fill="black"/>
<path d="M120.29 107.617H178.956C181.137 107.617 183.402 109.374 184.037 111.555L195.533 150.998C196.168 153.178 194.919 154.935 192.739 154.935H134.072C131.892 154.935 129.626 153.178 128.991 150.998L117.495 111.555C116.881 109.374 118.13 107.617 120.29 107.617Z" fill="white"/>
<path d="M192.738 155.398H134.072C131.701 155.398 129.224 153.493 128.547 151.122L117.05 111.679C116.691 110.451 116.86 109.308 117.516 108.44C118.13 107.614 119.125 107.148 120.29 107.148H178.956C181.327 107.148 183.804 109.054 184.482 111.425L195.978 150.867C196.338 152.095 196.168 153.239 195.512 154.107C194.898 154.954 193.903 155.398 192.738 155.398ZM120.29 108.08C119.422 108.08 118.702 108.398 118.257 108.99C117.791 109.625 117.686 110.472 117.94 111.425L129.436 150.867C130.007 152.858 132.082 154.467 134.072 154.467H192.738C193.606 154.467 194.326 154.149 194.771 153.556C195.237 152.921 195.343 152.074 195.088 151.122L183.592 111.679C183.021 109.689 180.946 108.08 178.956 108.08H120.29Z" fill="black"/>
<path d="M184.461 152.605C184.249 152.605 184.08 152.478 184.016 152.266L171.864 110.537C171.8 110.283 171.927 110.029 172.181 109.965C172.435 109.902 172.69 110.029 172.753 110.283L184.927 152.012C184.99 152.266 184.863 152.52 184.609 152.584C184.567 152.605 184.503 152.605 184.461 152.605Z" fill="black"/>
<path d="M135.005 147.99H178.639C179.338 147.99 179.74 147.418 179.55 146.72L170.552 115.809C170.34 115.111 169.62 114.539 168.901 114.539H125.266C124.568 114.539 124.165 115.111 124.356 115.809L133.354 146.72C133.565 147.44 134.306 147.99 135.005 147.99Z" fill="black"/>
<path d="M185.117 134.843C183.169 134.843 181.221 133.34 180.65 131.393C180.353 130.397 180.501 129.445 181.031 128.746C181.539 128.069 182.343 127.688 183.296 127.688C185.244 127.688 187.192 129.191 187.763 131.138C188.06 132.134 187.911 133.086 187.382 133.785C186.874 134.484 186.07 134.843 185.117 134.843ZM181.56 131.138C182.005 132.663 183.614 133.912 185.117 133.912C185.773 133.912 186.324 133.679 186.641 133.234C187.001 132.769 187.065 132.112 186.874 131.414C186.429 129.889 184.82 128.64 183.317 128.64C182.661 128.64 182.111 128.873 181.793 129.318C181.433 129.783 181.348 130.44 181.56 131.138Z" fill="black"/>
<path d="M182.322 117.992C182.11 117.992 181.941 117.865 181.877 117.653L181.031 114.71C180.904 114.266 180.395 113.885 179.972 113.885H177.686C177.431 113.885 177.22 113.673 177.22 113.419C177.22 113.165 177.431 112.953 177.686 112.953H179.972C180.819 112.953 181.687 113.609 181.941 114.456L182.788 117.399C182.851 117.653 182.724 117.907 182.47 117.971C182.428 117.971 182.364 117.992 182.322 117.992Z" fill="black"/>
<path d="M183.359 125.547H181.073C180.226 125.547 179.358 124.891 179.104 124.044L177.241 117.65C177.177 117.396 177.304 117.142 177.558 117.079C177.812 117.015 178.066 117.142 178.13 117.396L179.993 123.79C180.12 124.235 180.628 124.616 181.052 124.616H183.338C183.444 124.616 183.592 124.595 183.677 124.468C183.762 124.362 183.762 124.213 183.719 124.044C183.656 123.79 183.783 123.536 184.037 123.472C184.291 123.409 184.545 123.536 184.608 123.79C184.735 124.256 184.672 124.7 184.418 125.039C184.206 125.357 183.804 125.547 183.359 125.547Z" fill="black"/>
<path d="M181.157 117.994H178.87C178.616 117.994 178.404 117.782 178.404 117.528C178.404 117.274 178.616 117.062 178.87 117.062H181.157C181.411 117.062 181.622 117.274 181.622 117.528C181.622 117.782 181.411 117.994 181.157 117.994Z" fill="black"/>
<path d="M181.793 120.193H179.507C179.253 120.193 179.041 119.982 179.041 119.727C179.041 119.473 179.253 119.262 179.507 119.262H181.793C182.047 119.262 182.259 119.473 182.259 119.727C182.259 119.982 182.069 120.193 181.793 120.193Z" fill="black"/>
<path d="M190.368 149.598H188.081C187.234 149.598 186.366 148.942 186.112 148.095L185.604 146.338C185.541 146.084 185.668 145.83 185.922 145.766C186.176 145.703 186.43 145.83 186.493 146.084L187.001 147.841C187.128 148.286 187.637 148.667 188.06 148.667H190.346C190.601 148.667 190.812 148.878 190.812 149.132C190.833 149.408 190.622 149.598 190.368 149.598Z" fill="black"/>
<path d="M190.558 146.231C190.346 146.231 190.177 146.104 190.113 145.892L188.038 138.757C187.911 138.313 187.403 137.932 186.98 137.932H184.693C184.587 137.932 184.439 137.953 184.354 138.08C184.27 138.186 184.27 138.334 184.312 138.503L184.714 139.9C184.778 140.155 184.651 140.409 184.397 140.472C184.143 140.536 183.889 140.409 183.825 140.155L183.423 138.757C183.296 138.291 183.359 137.847 183.613 137.508C183.867 137.191 184.249 137 184.714 137H187.001C187.848 137 188.716 137.656 188.97 138.503L191.045 145.638C191.108 145.892 190.981 146.146 190.727 146.21C190.642 146.231 190.6 146.231 190.558 146.231Z" fill="black"/>
<path d="M187.593 140.049H184.523C184.269 140.049 184.058 139.837 184.058 139.583C184.058 139.329 184.269 139.117 184.523 139.117H187.593C187.847 139.117 188.059 139.329 188.059 139.583C188.059 139.837 187.847 140.049 187.593 140.049Z" fill="black"/>
<path d="M188.419 142.932H185.35C185.096 142.932 184.884 142.72 184.884 142.466C184.884 142.212 185.096 142 185.35 142H188.419C188.673 142 188.885 142.212 188.885 142.466C188.885 142.72 188.695 142.932 188.419 142.932Z" fill="black"/>
<path d="M200.764 79.1875H223.057C224.391 79.1875 225.767 80.2672 226.148 81.5799L230.234 95.6377C230.615 96.9715 229.853 98.0301 228.541 98.0301H206.268C204.934 98.0301 203.558 96.9504 203.177 95.6377L199.091 81.5799C198.689 80.2461 199.451 79.1875 200.764 79.1875Z" fill="white"/>
<path d="M228.561 98.4929H206.268C204.722 98.4929 203.156 97.2861 202.711 95.7618L198.625 81.7039C198.392 80.9206 198.498 80.1372 198.943 79.5656C199.366 79.0152 200.001 78.7188 200.784 78.7188H223.078C224.624 78.7188 226.19 79.9255 226.635 81.4499L230.721 95.5077C230.954 96.2911 230.848 97.0744 230.403 97.646C229.98 98.1965 229.324 98.4929 228.561 98.4929ZM200.763 79.6503C200.298 79.6503 199.895 79.8197 199.662 80.1372C199.408 80.476 199.345 80.9418 199.493 81.4499L203.579 95.5077C203.897 96.6298 205.125 97.5613 206.226 97.5613H228.519C228.985 97.5613 229.387 97.392 229.62 97.0744C229.874 96.7357 229.938 96.2699 229.789 95.7618L225.703 81.7039C225.386 80.5818 224.158 79.6503 223.057 79.6503H200.763Z" fill="black"/>
<path d="M229.239 85.1769C229.027 85.1769 228.858 85.0499 228.794 84.8382L228.456 83.6738C228.392 83.4197 228.519 83.1656 228.773 83.1021C229.027 83.0386 229.281 83.1656 229.345 83.4197L229.684 84.5841C229.747 84.8382 229.62 85.0922 229.366 85.1558C229.324 85.1769 229.281 85.1769 229.239 85.1769Z" fill="black"/>
<path d="M201.632 83.397C201.42 83.397 201.251 83.2699 201.187 83.0582L200.171 79.5438C199.938 78.7604 200.044 77.9771 200.488 77.4055C200.912 76.855 201.547 76.5586 202.33 76.5586H224.624C226.169 76.5586 227.736 77.7654 228.181 79.2897L228.922 81.8091C228.985 82.0632 228.858 82.3172 228.604 82.3807C228.35 82.4443 228.096 82.3172 228.032 82.0632L227.291 79.5438C226.974 78.4217 225.746 77.4901 224.645 77.4901H202.309C201.843 77.4901 201.441 77.6595 201.208 77.9771C200.954 78.3158 200.891 78.7816 201.06 79.2897L202.076 82.8042C202.14 83.0582 202.013 83.3123 201.759 83.3758C201.716 83.397 201.674 83.397 201.632 83.397Z" fill="black"/>
<path d="M203.282 89.0692C203.071 89.0692 202.901 88.9421 202.838 88.7304L201.864 85.4277C201.8 85.1736 201.927 84.9195 202.181 84.856C202.435 84.7925 202.69 84.9195 202.753 85.1736L203.727 88.4764C203.79 88.7304 203.663 88.9845 203.409 89.048C203.367 89.0692 203.325 89.0692 203.282 89.0692Z" fill="black"/>
<path d="M174.107 142.083C173.98 142.083 173.875 142.041 173.769 141.956L152.682 120.87C152.491 120.679 152.491 120.383 152.682 120.213C152.873 120.023 153.169 120.023 153.338 120.213L174.425 141.3C174.616 141.491 174.616 141.787 174.425 141.956C174.34 142.041 174.213 142.083 174.107 142.083Z" fill="white"/>
<path d="M158.483 132.281C158.356 132.281 158.25 132.239 158.144 132.154L145.95 119.959C145.759 119.769 145.759 119.472 145.95 119.303C146.14 119.113 146.436 119.113 146.606 119.303L158.801 131.498C158.991 131.688 158.991 131.985 158.801 132.154C158.737 132.239 158.61 132.281 158.483 132.281Z" fill="white"/>
<path d="M246.007 105.858C245.816 105.858 245.626 105.731 245.562 105.54C243.424 99.1462 236.501 93.9381 230.128 93.9381H222.316C215.562 93.9381 208.237 88.4547 205.993 81.701C205.908 81.4469 206.035 81.1928 206.289 81.1082C206.543 81.0235 206.797 81.1505 206.882 81.4046C209.02 87.7983 215.944 93.0065 222.316 93.0065H230.128C236.882 93.0065 244.207 98.4899 246.452 105.244C246.536 105.498 246.409 105.752 246.155 105.836C246.113 105.836 246.049 105.858 246.007 105.858Z" fill="black"/>
<path d="M205.781 82.1429C206.522 82.6933 207.432 82.6933 207.792 82.1429C208.173 81.5924 207.856 80.6821 207.115 80.1316C206.374 79.5811 205.463 79.5811 205.103 80.1316C204.722 80.6821 205.019 81.5924 205.781 82.1429Z" fill="white"/>
<path d="M206.924 83.034C206.438 83.034 205.951 82.8646 205.506 82.5259C204.553 81.8061 204.215 80.6416 204.723 79.8795C204.934 79.5619 205.273 79.3502 205.675 79.2867C206.226 79.1808 206.861 79.3714 207.411 79.7736C208.364 80.4934 208.703 81.6579 208.195 82.42C207.983 82.7376 207.644 82.9493 207.242 83.0128C207.115 83.034 207.03 83.034 206.924 83.034ZM205.972 80.1759C205.929 80.1759 205.866 80.1759 205.824 80.197C205.675 80.2182 205.548 80.2817 205.485 80.3876C205.273 80.684 205.464 81.3403 206.056 81.7637C206.395 82.0178 206.776 82.1236 207.073 82.0813C207.221 82.0601 207.348 81.9966 207.411 81.8908C207.623 81.5944 207.433 80.938 206.84 80.5146C206.565 80.3029 206.247 80.1759 205.972 80.1759Z" fill="black"/>
<path d="M245.393 106.346C246.134 106.896 247.044 106.896 247.404 106.346C247.785 105.796 247.467 104.885 246.726 104.335C245.985 103.784 245.075 103.784 244.715 104.335C244.355 104.885 244.652 105.774 245.393 106.346Z" fill="white"/>
<path d="M246.536 107.233C246.049 107.233 245.562 107.064 245.117 106.725C244.165 106.005 243.826 104.841 244.334 104.079C244.546 103.761 244.884 103.549 245.287 103.486C245.837 103.38 246.472 103.571 247.023 103.973C247.975 104.693 248.314 105.857 247.806 106.619C247.594 106.937 247.256 107.149 246.853 107.212C246.748 107.212 246.642 107.233 246.536 107.233ZM245.604 104.375C245.562 104.375 245.498 104.375 245.456 104.396C245.308 104.417 245.181 104.481 245.117 104.587C244.906 104.883 245.096 105.54 245.689 105.963C246.028 106.217 246.409 106.323 246.705 106.281C246.853 106.259 246.98 106.196 247.044 106.09C247.256 105.794 247.065 105.137 246.472 104.714C246.176 104.481 245.88 104.375 245.604 104.375Z" fill="black"/>
<path d="M223.185 92.7806L224.815 90.4094C225.09 89.986 225.768 89.9648 226.297 90.367L229.346 92.6112C229.875 93.0135 230.087 93.6698 229.79 94.072L228.16 96.4433C227.885 96.8667 227.207 96.8879 226.678 96.4856L223.629 94.2414C223.1 93.8392 222.888 93.1829 223.185 92.7806Z" fill="white"/>
<path d="M227.482 97.2469C227.123 97.2469 226.741 97.1199 226.403 96.8658L223.354 94.6217C222.613 94.0712 222.359 93.1397 222.804 92.5045L224.434 90.1333C224.624 89.8581 224.9 89.6887 225.259 89.6252C225.704 89.5405 226.191 89.6887 226.593 89.9851L229.642 92.2293C230.383 92.7797 230.637 93.7113 230.192 94.3464L228.562 96.7176C228.372 96.9929 228.096 97.1622 227.737 97.2258C227.652 97.2258 227.567 97.2469 227.482 97.2469ZM223.566 93.0338C223.439 93.2032 223.566 93.6054 223.904 93.8595L226.953 96.1037C227.144 96.2519 227.377 96.3154 227.567 96.2942C227.652 96.273 227.715 96.2307 227.758 96.1883L229.388 93.8171C229.515 93.6478 229.388 93.2455 229.049 92.9915L226 90.7473C225.81 90.5991 225.577 90.5356 225.386 90.5567C225.302 90.5779 225.238 90.6203 225.196 90.6626L223.566 93.0338Z" fill="black"/>
<path d="M230.425 115.809H237.115C237.433 115.809 237.665 115.618 237.687 115.343L239.211 110.283C239.232 110.071 239.147 109.817 238.978 109.606L227.164 93.8118C226.677 93.219 225.809 93.219 225.725 93.8118L224.412 109.606C224.391 109.817 224.454 110.071 224.624 110.283L229.514 115.343C229.769 115.618 230.107 115.809 230.425 115.809ZM228.625 108.23C228.138 106.79 228.922 105.604 230.382 105.604C231.822 105.604 233.389 106.769 233.876 108.23C234.363 109.669 233.579 110.855 232.119 110.855C230.658 110.855 229.112 109.69 228.625 108.23Z" fill="white"/>
<path d="M237.115 116.279H230.425C229.981 116.279 229.494 116.046 229.176 115.644L224.285 110.605C224.264 110.584 224.264 110.584 224.243 110.563C223.989 110.245 223.883 109.864 223.947 109.525L225.238 93.7737C225.302 93.3503 225.577 93.0327 225.958 92.9268C226.487 92.7786 227.101 93.0115 227.504 93.5197L239.338 109.314C239.571 109.61 239.698 109.97 239.656 110.309C239.656 110.33 239.656 110.372 239.635 110.393L238.11 115.411C238.068 115.919 237.645 116.279 237.115 116.279ZM224.984 109.97L229.875 115.009C229.896 115.03 229.896 115.03 229.917 115.051C230.044 115.22 230.256 115.347 230.425 115.347H237.115C237.221 115.347 237.221 115.305 237.221 115.284C237.221 115.263 237.221 115.22 237.242 115.199L238.767 110.203C238.767 110.139 238.724 110.033 238.64 109.906L226.805 94.1125C226.614 93.8796 226.36 93.816 226.233 93.8584C226.212 93.8584 226.191 93.8796 226.191 93.9007L224.899 109.652C224.878 109.716 224.899 109.843 224.984 109.97ZM232.119 111.325C230.468 111.325 228.731 110.033 228.181 108.382C227.885 107.514 227.99 106.667 228.435 106.053C228.858 105.46 229.557 105.143 230.383 105.143C232.034 105.143 233.77 106.434 234.321 108.086C234.617 108.954 234.511 109.801 234.067 110.414C233.643 111.007 232.966 111.325 232.119 111.325ZM229.07 108.086C229.494 109.335 230.891 110.393 232.119 110.393C232.648 110.393 233.05 110.203 233.304 109.864C233.58 109.483 233.622 108.954 233.432 108.382C233.008 107.133 231.611 106.074 230.383 106.074C229.854 106.074 229.451 106.265 229.197 106.604C228.922 106.985 228.88 107.514 229.07 108.086Z" fill="black"/>
<path d="M232.945 121.316H238.28C239.254 121.316 239.783 120.533 239.466 119.559L239.254 118.945C238.936 117.971 237.878 117.188 236.904 117.188H231.569C230.595 117.188 230.066 117.971 230.383 118.945L230.595 119.559C230.912 120.533 231.971 121.316 232.945 121.316Z" fill="black"/>
<path d="M229.683 103.976C229.493 103.976 229.302 103.849 229.239 103.658C226 94.1525 226 94.1525 226.19 93.8984L226.571 94.1737L226.931 94.4701L226.571 94.1737L227.037 94.089C227.122 94.4701 228.942 99.8476 230.128 103.362C230.213 103.616 230.086 103.87 229.832 103.955C229.768 103.955 229.726 103.976 229.683 103.976Z" fill="black"/>
</svg>
